<svg width="25" height="24" fill="none" xmlns="http://www.w3.org/2000/svg"><path fill-rule="evenodd" clip-rule="evenodd" d="M3.652 13.348a3.75 3.75 0 000 5.304l1.767 1.767a3.75 3.75 0 005.91-4.51c-.274-.48-.29-1.11.1-1.5l3.89-3.89a1 1 0 011.414 0l.354.354a1 1 0 001.414 0l.353-.353a1 1 0 000-1.414l-.618-.619a.625.625 0 11.884-.884l.618.619a1 1 0 001.415 0l.353-.354a1 1 0 000-1.414l-2.121-2.121a1 1 0 00-1.414 0L9.662 12.64c-.39.39-1.02.376-1.5.101a3.752 3.752 0 00-4.51.606zm5.303 3.536l-1.768-1.768a1.25 1.25 0 00-1.768 1.768l1.768 1.768a1.25 1.25 0 001.768-1.768z" fill="#969FA8"/></svg>