<?xml version="1.0" encoding="UTF-8" standalone="no"?>
<!DOCTYPE svg PUBLIC "-//W3C//DTD SVG 1.1//EN" "http://www.w3.org/Graphics/SVG/1.1/DTD/svg11.dtd" >
<svg xmlns="http://www.w3.org/2000/svg">
<metadata>
Generated by SVGconv.
Copyright   :  Ilya Ruderman and Yury Ostromentsky, CSTM Fonts, 2019
Designer    : Ilya Ruderman and Yury Ostromentsk
Foundry     : ParaType Ltd
</metadata>
<defs>
<font id="MTSSansWeb-Bold" horiz-adv-x="584" >
<font-face units-per-em="1000" ascent="1117" descent="287" >
<font-face-src>
<font-face-name/>
</font-face-src>
</font-face>
<missing-glyph horiz-adv-x="500" />
<glyph unicode="&#13;" horiz-adv-x="250" />
<glyph unicode="&#32;" horiz-adv-x="250" />
<glyph unicode="&#33;" horiz-adv-x="322" d="M99 232l-32 458h188l-31 -458zM252 74q0 -45 -23 -66q-23 -21 -67 -21q-44 0 -67.5 21q-23.5 21 -23.5 66q0 45 23.5 65.5q23.5 20.5 67.5 20.5q44 0 67 -20.5t23 -65.5z" />
<glyph unicode="&#34;" horiz-adv-x="497" d="M75 423l-15 267h154l-14 -267zM297 423l-15 267h154l-14 -267z" />
<glyph unicode="&#35;" horiz-adv-x="791" d="M93 532h143l34 158h130l-34 -158h138l34 158h131l-34 -158h119l-29 -126h-117l-29 -139h148l-29 -126h-146l-30 -141h-131l30 141h-138l-30 -141h-130l30 141h-116l29 126h114l29 139h-145zM310 267h138l29 139l-138 0z" />
<glyph unicode="&#36;" horiz-adv-x="661" d="M253 -120v112q-100 14 -154 66.5q-54 52.5 -59 156.5l172 0q1 -29 10 -48q9 -19 24.5 -30q15.5 -11 38 -15.5q22.5 -4.5 50.5 -4.5q57 0 89.5 17q32.5 17 32.5 64q0 28 -17.5 44q-17.5 16 -46 25q-28.5 9 -65 14q-36.5 5 -74 11.5q-37.5 6.5 -74 18q-36.5 11.5 -65 34q-28.5 22.5 -46 58.5q-17.5 36 -17.5 91q0 92 52.5 141.5q52.5 49.5 148.5 62.5l0 112h151v-112q93 -13 147 -61.5q54 -48.5 57 -142.5l-172 0q-4 47 -33.5 63q-29.5 16 -77.5 16q-51 0 -80.5 -17q-29.5 -17 -29.5 -60q0 -27 17.5 -42q17.5 -15 46 -24q28.5 -9 65 -14q36.5 -5 74.5 -12q38 -7 74.5 -19q36.5 -12 65 -33.5q28.5 -21.5 46 -56q17.5 -34.5 17.5 -87.5q0 -103 -56.5 -154.5q-56.5 -51.5 -160.5 -62.5l0 -111z" />
<glyph unicode="&#37;" horiz-adv-x="998" d="M333 0h-146l474 690h149zM232 316q-92 0 -147 48q-55 48 -55 146q0 96 55 144.5q55 48.5 147 48.5q46 0 83 -12q37 -12 63.5 -36.5q26.5 -24.5 41 -60.5q14.5 -36 14.5 -84q0 -49 -14.5 -85.5q-14.5 -36.5 -41 -60.5q-26.5 -24 -63.5 -36q-37 -12 -83 -12zt0 0zM232 423q34 0 51 14.5q17 14.5 17 58.5v27q0 42 -17.5 57.5q-17.5 15.5 -50.5 15.5q-33 0 -50.5 -15.5q-17.5 -15.5 -17.5 -57.5v-27q0 -44 16.5 -58.5q16.5 -14.5 51.5 -14.5zt0 0zM767 -14q-92 0 -147 48q-55 48 -55 146q0 97 55 145.5q55 48.5 148 47.5q90 1 145 -47.5q55 -48.5 55 -145.5q0 -98 -55 -146q-55 -48 -146 -48zt0 0zM767 93q34 0 51 15q17 15 17 59v26q0 42 -17.5 57.5q-17.5 15.5 -50.5 15.5q-34 0 -51.5 -15q-17.5 -15 -17.5 -58v-26q0 -44 17 -59t52 -15z" />
<glyph unicode="&#38;" horiz-adv-x="779" d="M40 187q-1 61 31 109.5q32 48.5 111 80.5q-32 35 -49.5 70.5q-17.5 35.5 -17.5 82.5q0 36 12.5 68q12.5 32 39.5 55q27 23 68.5 36.5q41.5 13.5 99.5 13.5q57 0 98.5 -12.5q41.5 -12.5 68.5 -35q27 -22.5 40 -54.5q13 -32 13 -70q0 -59 -35.5 -101.5q-35.5 -42.5 -115.5 -80.5l120 -112q14 47 14 108l147 0q0 -65 -14.5 -116q-14.5 -51 -40.5 -90q17 -14 35.5 -19.5q18.5 -5.5 50.5 -5.5h24v-114h-57q-51 0 -86 9q-35 9 -65 35q-51 -31 -107.5 -44q-56.5 -13 -110.5 -13q-78 0 -130.5 16.5q-52.5 16.5 -84 44q-31.5 27.5 -45.5 64q-14 36.5 -14 75.5zt0 0zM324 104q34 0 63.5 6q29.5 6 53.5 20l-175 166q-29 -16 -43.5 -37.5q-14.5 -21.5 -14.5 -51.5v-16q0 -42 30.5 -64.5q30.5 -22.5 85.5 -22.5zt0 0zM268 522q0 -31 16 -53.5q16 -22.5 38 -43.5q38 17 59 40.5q21 23.5 21 55.5v12q0 25 -16 39.5q-16 14.5 -51 14.5q-31 0 -49 -13.5q-18 -13.5 -18 -39.5z" />
<glyph unicode="&#39;" horiz-adv-x="274" d="M75 423l-15 267h154l-14 -267z" />
<glyph unicode="&#40;" horiz-adv-x="459" d="M410 -214q-77 9 -138 38.5q-61 29.5 -104 86.5q-43 57 -65.5 144q-22.5 87 -22.5 210q0 123 23.5 210.5q23.5 87.5 66.5 144.5q43 57 104 86.5q61 29.5 136 38.5l0 -130q-78 -17 -122.5 -88q-44.5 -71 -44.5 -185v-154q0 -115 44.5 -185q44.5 -70 122.5 -87l0 -130z" />
<glyph unicode="&#41;" horiz-adv-x="459" d="M49 745q77 -9 138 -39q61 -30 104 -87q43 -57 65.5 -143.5q22.5 -86.5 22.5 -209.5q0 -123 -23.5 -210.5q-23.5 -87.5 -66.5 -144.5q-43 -57 -104 -86.5q-61 -29.5 -136 -38.5l0 130q78 17 122.5 88q44.5 71 44.5 185v154q0 115 -44.5 185q-44.5 70 -122.5 87l0 130z" />
<glyph unicode="&#42;" horiz-adv-x="519" d="M394 370l-90 60l11 -108h-111l10 108l-88 -60l-51 88l99 48l-99 48l51 88l88 -61l-10 109h111l-11 -109l90 61l50 -88l-99 -48l99 -48z" />
<glyph unicode="&#43;" horiz-adv-x="650" d="M253 281h-189v141h189v187h144v-187h189v-141h-189v-187l-144 0z" />
<glyph unicode="&#44;" horiz-adv-x="287" d="M142 160q42 0 67 -21q25 -21 25 -71v-65q0 -45 -8.5 -76q-8.5 -31 -27.5 -49.5q-19 -18.5 -48 -26.5q-29 -8 -71 -8l0 83q38 0 51.5 14q13.5 14 13.5 41v6h-3q-39 0 -63.5 20.5q-24.5 20.5 -24.5 69.5q0 42 23 62.5t66 20.5z" />
<glyph unicode="&#45;" horiz-adv-x="420" d="M50 180v156h320l0 -156z" />
<glyph unicode="&#46;" horiz-adv-x="287" d="M234 74q0 -45 -23 -66q-23 -21 -67 -21q-44 0 -67.5 21q-23.5 21 -23.5 66q0 45 23.5 65.5q23.5 20.5 67.5 20.5q44 0 67 -20.5t23 -65.5z" />
<glyph unicode="&#47;" horiz-adv-x="556" d="M65 -95l313 835h158l-313 -835z" />
<glyph unicode="&#48;" horiz-adv-x="663" d="M622 345q0 -183 -71.5 -270.5q-71.5 -87.5 -218.5 -87.5q-148 0 -219 87.5q-71 87.5 -71 270.5q0 180 71 269q71 89 219 89q290 0 290 -358zt0 0zM450 395q0 41 -5.5 73.5q-5.5 32.5 -19 55q-13.5 22.5 -36.5 34.5q-23 12 -57 12q-35 0 -57.5 -11.5q-22.5 -11.5 -36 -33.5q-13.5 -22 -19 -55q-5.5 -33 -5.5 -75v-99q0 -44 5.5 -77q5.5 -33 19 -54.5q13.5 -21.5 36 -33q22.5 -11.5 57.5 -11.5q69 0 93.5 44q24.5 44 24.5 132z" />
<glyph unicode="&#49;" horiz-adv-x="414" d="M35 578l142 112h167v-690h-167v531l-142 -116z" />
<glyph unicode="&#50;" horiz-adv-x="613" d="M310 570q-45 0 -64 -18.5q-19 -18.5 -24 -68.5l-172 0q3 61 22 103.5q19 42.5 52.5 68q33.5 25.5 80.5 37q47 11.5 105 11.5q62 0 109.5 -11q47.5 -11 80 -36q32.5 -25 49.5 -65q17 -40 17 -97q0 -60 -23.5 -99.5q-23.5 -39.5 -58.5 -67q-35 -27.5 -77 -47q-42 -19.5 -78.5 -38.5q-36.5 -19 -63 -41.5q-26.5 -22.5 -31.5 -56.5l332 0v-144h-519v83q0 74 25.5 122.5q25.5 48.5 64 80.5q38.5 32 83.5 52.5q45 20.5 83.5 39q38.5 18.5 64 41q25.5 22.5 25.5 58.5v22q0 38 -20 54.5t-63 16.5z" />
<glyph unicode="&#51;" horiz-adv-x="627" d="M315 120q49 0 73.5 16.5q24.5 16.5 24.5 58.5v24q0 38 -24 55.5q-24 17.5 -72 17.5h-63v127h63q36 0 54 17.5q18 17.5 18 49.5v22q0 62 -74 62q-36 0 -58 -14.5q-22 -14.5 -25 -60.5l-176 0q1 59 20.5 99q19.5 40 54 64q34.5 24 81 34.5q46.5 10.5 101.5 10.5q114 0 180.5 -45q66.5 -45 66.5 -136q0 -57 -28.5 -97.5q-28.5 -40.5 -90.5 -59.5q70 -16 106.5 -56.5q36.5 -40.5 36.5 -107.5q0 -103 -66 -159q-66 -56 -203 -56q-65 0 -116.5 11.5q-51.5 11.5 -87 37.5q-35.5 26 -54.5 67.5q-19 41.5 -20 101.5l177 0q2 -45 26.5 -64.5t74.5 -19.5z" />
<glyph unicode="&#52;" horiz-adv-x="669" d="M539 690v-404h103v-132h-103v-154h-167v154h-339v119l250 417zM372 286v299l-179 -299z" />
<glyph unicode="&#53;" horiz-adv-x="629" d="M318 120q46 0 69.5 22q23.5 22 23.5 73v31q0 51 -24 73.5q-24 22.5 -70 22.5q-36 0 -60 -11.5q-24 -11.5 -41 -31.5l-147 32l31 359h434v-144h-305l-12 -140q20 20 54.5 33.5q34.5 13.5 85.5 13.5q111 0 168 -57q57 -57 57 -166q0 -124 -69 -183.5q-69 -59.5 -195 -59.5q-130 0 -201 52q-71 52 -77 166l176 0q6 -44 29 -64.5t73 -20.5z" />
<glyph unicode="&#54;" horiz-adv-x="632" d="M328 569q-27 0 -48.5 -7.5q-21.5 -7.5 -36 -28q-14.5 -20.5 -22.5 -56q-8 -35.5 -8 -91.5v-12q56 68 163 68q48 0 87.5 -12.5q39.5 -12.5 68 -39q28.5 -26.5 44.5 -67.5q16 -41 16 -99q0 -114 -67 -175.5q-67 -61.5 -201 -61.5q-72 0 -125.5 19q-53.5 19 -88 61.5q-34.5 42.5 -51.5 110.5q-17 68 -17 165q0 106 21.5 175.5q21.5 69.5 59.5 110.5q38 41 91.5 57.5q53.5 16.5 118.5 16.5q60 0 105 -14.5q45 -14.5 75.5 -39.5q30.5 -25 46.5 -59q16 -34 19 -74l-168 0q-7 25 -26 39q-19 14 -57 14zt0 0zM324 116q46 0 71.5 21q25.5 21 25.5 73v30q0 50 -26.5 70q-26.5 20 -70.5 20q-48 0 -75 -24.5q-27 -24.5 -27 -82.5q0 -60 27 -83.5t75 -23.5z" />
<glyph unicode="&#55;" horiz-adv-x="534" d="M27 690h479v-121l-254 -569h-163l243 546l-305 0z" />
<glyph unicode="&#56;" horiz-adv-x="655" d="M324 -13q-138 0 -212 48q-74 48 -74 158q0 142 143 175q-64 17 -92 57q-28 40 -28 95q0 48 19 82.5q19 34.5 54 57q35 22.5 83 33q48 10.5 107 10.5q58 0 107 -10.5q49 -10.5 83.5 -33q34.5 -22.5 54 -57q19.5 -34.5 19.5 -82.5q0 -55 -28.5 -95q-28.5 -40 -92.5 -57q71 -17 107.5 -61q36.5 -44 36.5 -114q0 -110 -75 -158q-75 -48 -212 -48zt0 0zM324 299q-57 0 -87 -20q-30 -20 -30 -63v-21q0 -42 32 -61.5q32 -19.5 85 -19.5q51 0 84.5 19q33.5 19 33.5 62v21q0 43 -31 63q-31 20 -87 20zt0 0zM324 415q44 0 69.5 17.5q25.5 17.5 25.5 55.5v16q0 38 -25 55q-25 17 -70 17q-45 0 -69.5 -17q-24.5 -17 -24.5 -55v-16q0 -39 24.5 -56t69.5 -17z" />
<glyph unicode="&#57;" horiz-adv-x="632" d="M304 121q27 0 48.5 7.5q21.5 7.5 36 28q14.5 20.5 22.5 56q8 35.5 8 91.5v12q-27 -33 -68.5 -50.5q-41.5 -17.5 -94.5 -17.5q-48 0 -88 12.5q-40 12.5 -68.5 39q-28.5 26.5 -44 67.5q-15.5 41 -15.5 99q0 114 67 175.5q67 61.5 201 61.5q72 0 125.5 -19q53.5 -19 88 -61.5q34.5 -42.5 51.5 -110.5q17 -68 17 -165q0 -106 -21.5 -175.5q-21.5 -69.5 -59.5 -110.5q-38 -41 -92 -57.5q-54 -16.5 -118 -16.5q-60 0 -105 14.5q-45 14.5 -75.5 39.5q-30.5 25 -46.5 59q-16 34 -19 74l168 0q7 -25 26 -39q19 -14 57 -14zt0 0zM308 574q-46 0 -71.5 -21q-25.5 -21 -25.5 -73v-30q0 -50 26.5 -70q26.5 -20 70.5 -20q48 0 75 24.5q27 24.5 27 82.5q0 60 -27 83.5t-75 23.5z" />
<glyph unicode="&#58;" horiz-adv-x="287" d="M234 74q0 -45 -23 -66q-23 -21 -67 -21q-44 0 -67.5 21q-23.5 21 -23.5 66q0 45 23.5 65.5q23.5 20.5 67.5 20.5q44 0 67 -20.5q23 -20.5 23 -65.5zt0 0zM234 387q0 -45 -23 -66q-23 -21 -67 -21q-44 0 -67.5 21q-23.5 21 -23.5 66q0 45 23.5 65.5q23.5 20.5 67.5 20.5q44 0 67 -20.5t23 -65.5z" />
<glyph unicode="&#59;" horiz-adv-x="287" d="M234 387q0 -45 -23 -66q-23 -21 -67 -21q-44 0 -67.5 21q-23.5 21 -23.5 66q0 45 23.5 65.5q23.5 20.5 67.5 20.5q44 0 67 -20.5q23 -20.5 23 -65.5zt0 0zM142 160q42 0 67 -21q25 -21 25 -71v-65q0 -45 -8.5 -76q-8.5 -31 -27.5 -49.5q-19 -18.5 -48 -26.5q-29 -8 -71 -8l0 83q38 0 51.5 14q13.5 14 13.5 41v6h-3q-39 0 -63.5 20.5q-24.5 20.5 -24.5 69.5q0 42 23 62.5t66 20.5z" />
<glyph unicode="&#60;" horiz-adv-x="650" d="M229 351l357 -127v-150l-522 193v169l522 192l0 -148z" />
<glyph unicode="&#61;" horiz-adv-x="650" d="M64 407v141h522v-141zM64 152v141h522l0 -141z" />
<glyph unicode="&#62;" horiz-adv-x="650" d="M421 351l-357 127v150l522 -193v-169l-522 -192l0 148z" />
<glyph unicode="&#63;" horiz-adv-x="592" d="M303 570q-44 0 -71.5 -17q-27.5 -17 -29.5 -64l-172 0q1 62 21.5 103q20.5 41 57 66q36.5 25 86 35q49.5 10 109.5 10q60 0 107.5 -11.5q47.5 -11.5 81 -35q33.5 -23.5 51.5 -60q18 -36.5 18 -86.5q0 -44 -15 -73q-15 -29 -37.5 -49q-22.5 -20 -48.5 -34q-26 -14 -48.5 -28q-22.5 -14 -37.5 -32q-15 -18 -15 -46v-16h-153v16q0 46 13.5 75.5q13.5 29.5 34 49.5q20.5 20 44 32.5q23.5 12.5 44 24q20.5 11.5 34 25q13.5 13.5 13.5 34.5v20q0 34 -24 47.5q-24 13.5 -63 13.5zt0 0zM374 74q0 -45 -23 -66q-23 -21 -67 -21q-44 0 -67.5 21q-23.5 21 -23.5 66q0 45 23.5 65.5q23.5 20.5 67.5 20.5q44 0 67 -20.5t23 -65.5z" />
<glyph unicode="&#64;" horiz-adv-x="1089" d="M495 11q-97 0 -148 59.5q-51 59.5 -51 182.5q0 121 51 180.5q51 59.5 148 59.5q92 0 140 -68l0 51h137v-260q0 -27 3.5 -43.5q3.5 -16.5 11 -26q7.5 -9.5 18 -12.5q10.5 -3 24.5 -3q31 0 49 27.5q18 27.5 18 90.5v60q0 82 -28 137q-28 55 -76 88q-48 33 -111.5 46.5q-63.5 13.5 -134.5 13.5q-71 0 -135 -14q-64 -14 -112 -49q-48 -35 -76.5 -94q-28.5 -59 -28.5 -149v-65q0 -96 31.5 -156.5q31.5 -60.5 81.5 -94.5q50 -34 113 -46.5q63 -12.5 125 -12.5q22 0 52 2q30 2 60.5 7q30.5 5 58 13q27.5 8 45.5 20l0 -109q-17 -10 -41.5 -18q-24.5 -8 -53 -13.5q-28.5 -5.5 -60 -8.5q-31.5 -3 -61.5 -3q-61 0 -121 8.5q-60 8.5 -115 28q-55 19.5 -101.5 53q-46.5 33.5 -81 83.5q-34.5 50 -54 118.5q-19.5 68.5 -19.5 159.5q0 117 35 202q35 85 99.5 139.5q64.5 54.5 155.5 81q91 26.5 203 26.5q112 0 202.5 -26q90.5 -26 154 -77.5q63.5 -51.5 98 -129.5q34.5 -78 34.5 -182q0 -137 -58.5 -207q-58.5 -70 -161.5 -70q-67 0 -108 25q-41 25 -54 72q-41 -97 -158 -97zt0 0zM539 127q47 0 68 24.5q21 24.5 21 75.5v49q0 52 -21 76.5q-21 24.5 -69 24.5q-46 0 -67 -24.5q-21 -24.5 -21 -76.5v-49q0 -51 21 -75.5t68 -24.5z" />
<glyph unicode="&#65;" horiz-adv-x="710" d="M474 690l224 -690h-175l-49 152h-262l-47 -152h-153l217 690zM251 279h182l-92 289z" />
<glyph unicode="&#66;" horiz-adv-x="671" d="M634 201q0 -97 -57 -149q-57 -52 -172 -52h-335v690h335q101 0 155 -42.5q54 -42.5 54 -127.5q0 -51 -24.5 -93q-24.5 -42 -86.5 -63q69 -18 100 -60q31 -42 31 -103zt0 0zM462 227q0 33 -23 52.5q-23 19.5 -71 19.5h-134v-179h134q94 0 94 74zM443 505q0 32 -22 48.5q-22 16.5 -62 16.5h-125v-160h125q40 0 62 17q22 17 22 52z" />
<glyph unicode="&#67;" horiz-adv-x="702" d="M359 -13q-77 0 -136 19.5q-59 19.5 -99 62.5q-40 43 -61 111.5q-21 68.5 -21 166.5q0 95 21 162.5q21 67.5 61 110.5q40 43 99 63q59 20 136 20q67 0 120.5 -13q53.5 -13 92 -42q38.5 -29 61.5 -74.5q23 -45.5 31 -111.5l-172 0q-8 62 -42 85q-34 23 -91 23q-34 0 -61 -8.5q-27 -8.5 -45.5 -29q-18.5 -20.5 -28.5 -53.5q-10 -33 -10 -82v-102q0 -49 9.5 -82.5q9.5 -33.5 28 -54q18.5 -20.5 45.5 -29.5q27 -9 62 -9q55 0 89 22.5q34 22.5 45 85.5l172 0q-8 -65 -31.5 -110.5q-23.5 -45.5 -62.5 -74.5q-39 -29 -92 -42.5t-120 -13.5z" />
<glyph unicode="&#68;" horiz-adv-x="709" d="M325 141q88 0 129 37q41 37 41 128v79q0 87 -41 125.5q-41 38.5 -129 38.5h-88v-408zM70 0v690h255q86 0 150.5 -19q64.5 -19 107 -60q42.5 -41 63.5 -107q21 -66 21 -159q0 -93 -21 -158.5q-21 -65.5 -63.5 -107q-42.5 -41.5 -107 -60.5q-64.5 -19 -150.5 -19z" />
<glyph unicode="&#69;" horiz-adv-x="611" d="M70 0v690h494v-137h-327v-133h246v-134h-246v-149h331l0 -137z" />
<glyph unicode="&#70;" horiz-adv-x="591" d="M70 0v690h477v-141h-310v-142h233v-141h-233l0 -266z" />
<glyph unicode="&#71;" horiz-adv-x="719" d="M678 275q0 -145 -81 -216.5q-81 -71.5 -237 -71.5q-77 0 -136.5 19.5q-59.5 19.5 -100 62.5q-40.5 43 -61 111.5q-20.5 68.5 -20.5 166.5q0 96 21 163.5q21 67.5 61.5 110q40.5 42.5 99.5 62.5q59 20 136 20q136 0 215 -55.5q79 -55.5 93 -182.5l-173 0q-8 58 -42.5 81.5q-34.5 23.5 -92.5 23.5q-34 0 -61 -8.5q-27 -8.5 -46 -29q-19 -20.5 -29 -53.5q-10 -33 -10 -82v-106q0 -96 37.5 -133.5q37.5 -37.5 108.5 -37.5q77 0 110.5 29.5q33.5 29.5 38.5 98.5l-132 0v121h301l0 -94z" />
<glyph unicode="&#72;" horiz-adv-x="727" d="M490 0v281h-253v-281h-167v690h167v-268h253v268h167l0 -690z" />
<glyph unicode="&#73;" horiz-adv-x="307" d="M70 0v690h167l0 -690z" />
<glyph unicode="&#74;" horiz-adv-x="382" d="M147 690h167v-543q0 -73 -36.5 -110q-36.5 -37 -129.5 -37h-125v134h55q38 0 53.5 19q15.5 19 15.5 58z" />
<glyph unicode="&#75;" horiz-adv-x="684" d="M237 419h44l194 271h179l-236 -332l257 -358h-195l-200 277h-43v-277h-167v690l167 0z" />
<glyph unicode="&#76;" horiz-adv-x="536" d="M70 0v690h167v-549h279l0 -141z" />
<glyph unicode="&#77;" horiz-adv-x="914" d="M465 204l125 486h254v-690h-167v558l-144 -558h-164l-144 561v-561h-155v690l271 0z" />
<glyph unicode="&#78;" horiz-adv-x="744" d="M519 210v480h156v-690h-229l-221 479v-479h-155v690l228 0z" />
<glyph unicode="&#79;" horiz-adv-x="760" d="M719 352q0 -101 -22 -170.5q-22 -69.5 -64.5 -113q-42.5 -43.5 -106 -62.5q-63.5 -19 -146.5 -19q-83 0 -146 19q-63 19 -106 62.5q-43 43.5 -64.5 113q-21.5 69.5 -21.5 170.5q0 96 21.5 163q21.5 67 64.5 109q43 42 106 60.5q63 18.5 146 18.5q83 0 146.5 -18.5q63.5 -18.5 106 -60.5q42.5 -42 64.5 -109q22 -67 22 -163zt0 0zM547 388q0 97 -41 139.5q-41 42.5 -126 42.5q-85 0 -125.5 -42.5q-40.5 -42.5 -40.5 -139.5v-85q0 -51 10 -86q10 -35 30.5 -56.5q20.5 -21.5 52 -31q31.5 -9.5 73.5 -9.5q42 0 73.5 9.5q31.5 9.5 52.5 31q21 21.5 31 56.5q10 35 10 86z" />
<glyph unicode="&#80;" horiz-adv-x="657" d="M630 455q0 -110 -58 -169.5q-58 -59.5 -181 -59.5h-154v-226h-167v690h321q122 0 180.5 -62.5q58.5 -62.5 58.5 -172.5zt0 0zM458 473q0 37 -21 57.5q-21 20.5 -65 20.5h-135v-186h135q43 0 64.5 19.5q21.5 19.5 21.5 54.5z" />
<glyph unicode="&#81;" horiz-adv-x="760" d="M719 352q0 -100 -21 -168q-21 -68 -62 -112l79 -87l-115 -97l-102 111q-53 -12 -118 -12q-83 0 -146 19q-63 19 -106 62.5q-43 43.5 -64.5 113q-21.5 69.5 -21.5 170.5q0 96 21.5 163q21.5 67 64.5 109q43 42 106 60.5q63 18.5 146 18.5q83 0 146.5 -18.5q63.5 -18.5 106 -60.5q42.5 -42 64.5 -109q22 -67 22 -163zt0 0zM547 388q0 97 -41 139.5q-41 42.5 -126 42.5q-85 0 -125.5 -42.5q-40.5 -42.5 -40.5 -139.5v-85q0 -51 10 -86q10 -35 30.5 -56.5q20.5 -21.5 52 -31q31.5 -9.5 73.5 -9.5q42 0 73.5 9.5q31.5 9.5 52.5 31q21 21.5 31 56.5q10 35 10 86z" />
<glyph unicode="&#82;" horiz-adv-x="682" d="M625 468q0 -148 -115 -200l132 -268h-180l-118 243h-107v-243h-167v690h305q124 0 187 -56.5q63 -56.5 63 -165.5zt0 0zM453 480q0 75 -89 75h-127v-177h127q45 0 67 19.5q22 19.5 22 55.5z" />
<glyph unicode="&#83;" horiz-adv-x="661" d="M621 208q0 -59 -19 -101q-19 -42 -56 -68.5q-37 -26.5 -90 -39q-53 -12.5 -120 -12.5q-138 0 -214.5 52.5q-76.5 52.5 -81.5 175.5l172 0q1 -29 10 -48q9 -19 24.5 -30q15.5 -11 38 -15.5q22.5 -4.5 50.5 -4.5q57 0 89.5 17q32.5 17 32.5 64q0 28 -17.5 44q-17.5 16 -46 25q-28.5 9 -65 14q-36.5 5 -74 11.5q-37.5 6.5 -74 18q-36.5 11.5 -65 34q-28.5 22.5 -46 58.5q-17.5 36 -17.5 91q0 108 72.5 158.5q72.5 50.5 200.5 50.5q63 0 114.5 -11.5q51.5 -11.5 88.5 -36.5q37 -25 57.5 -65q20.5 -40 22.5 -96l-172 0q-4 47 -33.5 63q-29.5 16 -77.5 16q-51 0 -80.5 -17q-29.5 -17 -29.5 -60q0 -27 17.5 -42q17.5 -15 46 -24q28.5 -9 65 -14q36.5 -5 74.5 -12q38 -7 74.5 -19q36.5 -12 65 -33.5q28.5 -21.5 46 -56t17.5 -87.5z" />
<glyph unicode="&#84;" horiz-adv-x="617" d="M392 549v-549h-167v549h-205v141h577l0 -141z" />
<glyph unicode="&#85;" horiz-adv-x="715" d="M358 120q62 0 93.5 29.5q31.5 29.5 31.5 110.5v430h167v-430q0 -143 -73 -208q-73 -65 -219 -65q-146 0 -219.5 65q-73.5 65 -73.5 208v430h167v-430q0 -81 32 -110.5t94 -29.5z" />
<glyph unicode="&#86;" horiz-adv-x="696" d="M229 0l-217 690h174l175 -566l170 566h153l-211 -690z" />
<glyph unicode="&#87;" horiz-adv-x="936" d="M148 0l-131 690h166l94 -507l110 507h176l108 -508l96 508h152l-134 -690h-221l-105 489l-105 -489z" />
<glyph unicode="&#88;" horiz-adv-x="671" d="M340 469l137 221h167l-215 -344l229 -346h-181l-150 224l-141 -224h-168l221 346l-226 344l182 0z" />
<glyph unicode="&#89;" horiz-adv-x="678" d="M355 428l151 262h162l-235 -404v-286h-167v286l-256 404l180 0z" />
<glyph unicode="&#90;" horiz-adv-x="611" d="M47 0v141l322 408h-317v141h508v-141l-323 -408h327l0 -141z" />
<glyph unicode="&#91;" horiz-adv-x="426" d="M85 -210v950h292v-127h-141v-696h141l0 -127z" />
<glyph unicode="&#92;" horiz-adv-x="556" d="M20 740h158l313 -835l-158 0z" />
<glyph unicode="&#93;" horiz-adv-x="426" d="M341 740v-950h-292v127h141v696h-141l0 127z" />
<glyph unicode="&#94;" horiz-adv-x="495" d="M248 616l-60 -177h-145l109 291h192l108 -291l-144 0z" />
<glyph unicode="&#95;" horiz-adv-x="573" d="M0 -54h573v-118l-573 0z" />
<glyph unicode="&#97;" horiz-adv-x="593" d="M40 140q0 81 52.5 119.5q52.5 38.5 162.5 47.5l121 9v21q0 41 -18 57.5q-18 16.5 -54 16.5q-37 0 -54.5 -14q-17.5 -14 -22.5 -43l-168 0q6 83 66 126q60 43 178 43q116 0 175.5 -44.5q59.5 -44.5 59.5 -141.5v-337h-156v62q-26 -37 -67 -56q-41 -19 -104 -19q-84 0 -127.5 43q-43.5 43 -43.5 110zt0 0zM274 96q50 0 76 25q26 25 26 71v32l-100 -9q-35 -3 -52.5 -14.5q-17.5 -11.5 -17.5 -37.5v-16q0 -51 68 -51z" />
<glyph unicode="&#98;" horiz-adv-x="628" d="M60 0v730h162v-273q48 66 153 66q106 0 161 -66.5q55 -66.5 55 -203.5q0 -135 -55.5 -200.5q-55.5 -65.5 -160.5 -65.5q-109 0 -158 71l0 -58zM323 102q53 0 77 26q24 26 24 79v101q0 51 -24 75.5q-24 24.5 -76 24.5q-52 0 -76 -22q-24 -22 -26 -68l0 -111q0 -53 24 -79t77 -26z" />
<glyph unicode="&#99;" horiz-adv-x="559" d="M527 166q-11 -91 -70 -135q-59 -44 -173 -44q-127 0 -187 62q-60 62 -60 206q0 142 60 205q60 63 187 63q53 0 95.5 -9q42.5 -9 73.5 -30q31 -21 49 -55.5q18 -34.5 22 -84.5l-165 0q-3 32 -20.5 48q-17.5 16 -54.5 16q-42 0 -61 -23q-19 -23 -19 -74v-106q0 -54 19.5 -78.5q19.5 -24.5 60.5 -24.5q38 0 56 15.5q18 15.5 22 48.5l165 0z" />
<glyph unicode="&#100;" horiz-adv-x="628" d="M411 60q-48 -73 -159 -73q-105 0 -160 65.5q-55 65.5 -55 200.5q0 137 55 203.5q55 66.5 160 66.5q105 0 154 -67l0 274h162v-730h-157zM305 102q50 0 74.5 23.5q24.5 23.5 26.5 71.5l0 121q-2 46 -26.5 68q-24.5 22 -75.5 22q-52 0 -76 -24.5q-24 -24.5 -24 -75.5v-101q0 -54 24 -79.5t77 -25.5z" />
<glyph unicode="&#101;" horiz-adv-x="582" d="M292 99q38 0 63 16q25 16 28 56l163 0q-11 -96 -76.5 -140q-65.5 -44 -177.5 -44q-129 0 -192 64q-63 64 -63 202q0 140 63.5 205q63.5 65 191.5 65q125 0 189 -58.5q64 -58.5 64 -191.5v-31h-348v-31q0 -60 25 -86q25 -26 70 -26zt0 0zM291 411q-44 0 -67 -18q-23 -18 -27 -60l183 0q-3 43 -24 60.5t-65 17.5z" />
<glyph unicode="&#102;" horiz-adv-x="361" d="M303 601q-38 0 -52 -13q-14 -13 -14 -44v-34h119v-129h-119v-381h-162v381h-62v129h62v38q0 48 9 82.5q9 34.5 31 56.5q22 22 58.5 32.5q36.5 10.5 92.5 10.5h90l0 -129z" />
<glyph unicode="&#103;" horiz-adv-x="628" d="M568 11q0 -113 -63.5 -168.5q-63.5 -55.5 -194.5 -55.5q-117 0 -182 43q-65 43 -72 126l169 0q5 -28 27 -41q22 -13 58 -13q48 0 72 23q24 23 24 86v43q-48 -61 -146 -61q-109 0 -166 64.5q-57 64.5 -57 195.5q0 137 57 203.5q57 66.5 166 66.5q104 0 151 -71l0 58h157zM305 109q53 0 77 25q24 25 24 79v105q-2 46 -26.5 68q-24.5 22 -75.5 22q-52 0 -76 -24.5q-24 -24.5 -24 -75.5v-95q0 -54 24 -79t77 -25z" />
<glyph unicode="&#104;" horiz-adv-x="612" d="M395 330q0 44 -22 62q-22 18 -65 18q-38 0 -62 -18q-24 -18 -24 -62v-330h-162v730h159v-289q22 43 64.5 63.5q42.5 20.5 97.5 20.5q87 0 131.5 -47.5q44.5 -47.5 44.5 -147.5v-330l-162 0z" />
<glyph unicode="&#105;" horiz-adv-x="282" d="M60 0v510h162v-510zM229 668q0 -43 -23 -63.5q-23 -20.5 -65 -20.5q-42 0 -65 20.5q-23 20.5 -23 63.5q0 43 23 63q23 20 65 20q42 0 65 -20t23 -63z" />
<glyph unicode="&#106;" horiz-adv-x="282" d="M0 -71q34 0 47 15q13 15 13 49v517h162v-538q0 -45 -7.5 -77.5q-7.5 -32.5 -25.5 -53.5q-18 -21 -48.5 -31q-30.5 -10 -77.5 -10h-107v129zM229 668q0 -43 -23 -63.5q-23 -20.5 -65 -20.5q-42 0 -65 20.5q-23 20.5 -23 63.5q0 43 23 63q23 20 65 20q42 0 65 -20t23 -63z" />
<glyph unicode="&#107;" horiz-adv-x="593" d="M60 0v730h162v-410h39l127 190h179l-162 -243l183 -267h-195l-131 191h-40l0 -191z" />
<glyph unicode="&#108;" horiz-adv-x="282" d="M60 0v730h162l0 -730z" />
<glyph unicode="&#109;" horiz-adv-x="907" d="M375 330q0 44 -19 62q-19 18 -58 18q-35 0 -55.5 -18q-20.5 -18 -20.5 -62v-330h-162v510h157v-72q20 45 61 66q41 21 93 21q113 0 148 -88q23 45 66.5 66.5q43.5 21.5 100.5 21.5q85 0 125.5 -47.5q40.5 -47.5 40.5 -147.5v-330h-162v330q0 44 -19 62q-19 18 -58 18q-33 0 -53.5 -16.5q-20.5 -16.5 -22.5 -55.5l0 -8v-330l-162 0z" />
<glyph unicode="&#110;" horiz-adv-x="612" d="M395 330q0 44 -22 62q-22 18 -65 18q-38 0 -62 -18q-24 -18 -24 -62v-330h-162v510h157v-72q21 45 64 66q43 21 100 21q87 0 131.5 -47.5q44.5 -47.5 44.5 -147.5v-330l-162 0z" />
<glyph unicode="&#111;" horiz-adv-x="610" d="M305 -13q-69 0 -119.5 14q-50.5 14 -83.5 46q-33 32 -49 83q-16 51 -16 125q0 73 16 124q16 51 49 83q33 32 83.5 46.5q50.5 14.5 119.5 14.5q68 0 118.5 -14.5q50.5 -14.5 83.5 -46.5q33 -32 49.5 -83q16.5 -51 16.5 -124q0 -74 -16.5 -125q-16.5 -51 -49.5 -83q-33 -32 -83.5 -46q-50.5 -14 -118.5 -14zt0 0zM305 102q51 0 76 24.5q25 24.5 25 84.5v93q0 57 -25 80.5q-25 23.5 -76 23.5q-51 0 -76 -23.5q-25 -23.5 -25 -80.5v-93q0 -60 25 -84.5t76 -24.5z" />
<glyph unicode="&#112;" horiz-adv-x="628" d="M60 -200v710h157v-62q51 75 164 75q103 0 156.5 -66.5q53.5 -66.5 53.5 -203.5q0 -132 -53 -199q-53 -67 -157 -67q-108 0 -159 67l0 -254zM323 102q53 0 77 25.5q24 25.5 24 79.5v101q0 50 -24 75q-24 25 -76 25q-52 0 -76 -23q-24 -23 -26 -68l0 -110q0 -54 24 -79.5t77 -25.5z" />
<glyph unicode="&#113;" horiz-adv-x="628" d="M260 -13q-109 0 -166 65.5q-57 65.5 -57 200.5q0 137 57 203.5q57 66.5 166 66.5q104 0 151 -71l0 58h157v-710h-162v250q-47 -63 -146 -63zt0 0zM305 102q53 0 77 25.5q24 25.5 24 79.5v110q-2 45 -26.5 68q-24.5 23 -75.5 23q-52 0 -76 -25q-24 -25 -24 -75v-101q0 -54 24 -79.5t77 -25.5z" />
<glyph unicode="&#114;" horiz-adv-x="439" d="M412 371h-66q-69 0 -96.5 -23.5q-27.5 -23.5 -27.5 -74.5v-273h-162v510h157v-97q16 46 51 71.5q35 25.5 95 25.5l49 0z" />
<glyph unicode="&#115;" horiz-adv-x="560" d="M365 142q0 28 -23.5 39.5q-23.5 11.5 -58.5 17q-35 5.5 -76.5 10.5q-41.5 5 -76.5 21q-35 16 -58.5 47.5q-23.5 31.5 -23.5 90.5q0 76 56 115.5q56 39.5 169 39.5q53 0 97 -9q44 -9 75.5 -29.5q31.5 -20.5 49 -53q17.5 -32.5 19.5 -78.5l-166 0q-2 37 -22.5 48.5q-20.5 11.5 -52.5 11.5q-64 0 -64 -42q0 -26 23.5 -37q23.5 -11 59 -16.5q35.5 -5.5 76.5 -11.5q41 -6 76.5 -22q35.5 -16 59 -48q23.5 -32 23.5 -89q0 -79 -61 -119.5q-61 -40.5 -179 -40.5q-56 0 -101.5 10q-45.5 10 -78.5 31.5q-33 21.5 -52 55q-19 33.5 -22 81.5l166 0q2 -39 26.5 -53.5q24.5 -14.5 62.5 -14.5q37 0 57 11t20 34z" />
<glyph unicode="&#116;" horiz-adv-x="383" d="M13 510h62v153h162v-153h118v-129h-118v-188q0 -35 13 -49.5q13 -14.5 47 -14.5h58v-129h-121q-47 0 -77.5 10q-30.5 10 -48.5 31q-18 21 -25.5 53.5q-7.5 32.5 -7.5 77.5v209l-62 0z" />
<glyph unicode="&#117;" horiz-adv-x="612" d="M217 180q0 -44 21.5 -62q21.5 -18 65.5 -18q38 0 62 18q24 18 24 62v330h162v-510h-157v73q-21 -45 -64 -66.5q-43 -21.5 -100 -21.5q-88 0 -132 45q-44 45 -44 150v330l162 0z" />
<glyph unicode="&#118;" horiz-adv-x="553" d="M12 510h162l111 -363l109 363h147l-160 -510l-207 0z" />
<glyph unicode="&#119;" horiz-adv-x="804" d="M398 359l-75 -359h-187l-118 510h151l79 -365l77 365h168l79 -356l78 356h136l-117 -510l-191 0z" />
<glyph unicode="&#120;" horiz-adv-x="567" d="M17 510h169l101 -145l94 145h156l-167 -253l181 -257h-170l-105 150l-99 -150h-156l173 257z" />
<glyph unicode="&#121;" horiz-adv-x="567" d="M124 -75q22 0 36.5 2q14.5 2 24.5 8q10 6 17 17.5q7 11.5 13 29.5l1 3l-204 525h165l116 -311l113 311h149l-208 -569q-15 -42 -32.5 -69.5q-17.5 -27.5 -40 -43q-22.5 -15.5 -52 -22q-29.5 -6.5 -70.5 -6.5h-76l0 125z" />
<glyph unicode="&#122;" horiz-adv-x="514" d="M38 0v129l235 252h-230v129h415v-129l-234 -252h251l0 -129z" />
<glyph unicode="&#123;" horiz-adv-x="440" d="M268 411q0 -27 -2.5 -50.5q-2.5 -23.5 -12.5 -42.5q-10 -19 -28.5 -33q-18.5 -14 -51.5 -21q33 -5 52 -18q19 -13 28.5 -32q9.5 -19 12 -43.5q2.5 -24.5 2.5 -52.5v-132q0 -35 10 -52q10 -17 43 -17h71v-127h-117q-44 0 -73.5 8.5q-29.5 8.5 -47.5 27.5q-18 19 -26 48.5q-8 29.5 -8 70.5v141q0 26 -2.5 46q-2.5 20 -11.5 34.5q-9 14.5 -26 22q-17 7.5 -45 8.5l0 135q28 1 45 9.5q17 8.5 26 23.5q9 15 11.5 35q2.5 20 2.5 44v141q0 82 34 118.5q34 36.5 121 36.5h117v-127h-71q-33 0 -43 -17q-10 -17 -10 -49z" />
<glyph unicode="&#124;" horiz-adv-x="287" d="M68 -200v930h151l0 -930z" />
<glyph unicode="&#125;" horiz-adv-x="440" d="M172 119q0 27 2.5 50.5q2.5 23.5 12.5 42.5q10 19 28.5 33q18.5 14 51.5 21q-33 5 -52 18q-19 13 -28.5 32q-9.5 19 -12 43q-2.5 24 -2.5 53v132q0 35 -10 52q-10 17 -43 17h-71v127h117q87 0 121 -36.5q34 -36.5 34 -118.5v-141q0 -26 2.5 -46q2.5 -20 11.5 -34.5q9 -14.5 25.5 -22q16.5 -7.5 45.5 -8.5l0 -135q-28 -1 -45 -9.5q-17 -8.5 -26 -23.5q-9 -15 -11.5 -35q-2.5 -20 -2.5 -44v-141q0 -41 -8 -70.5q-8 -29.5 -26 -48.5q-18 -19 -48 -27.5q-30 -8.5 -73 -8.5h-117v127h71q33 0 43 17q10 17 10 49z" />
<glyph unicode="&#126;" horiz-adv-x="627" d="M213 476q41 0 68 -14.5q27 -14.5 47 -32.5q20 -18 36.5 -32.5q16.5 -14.5 36.5 -14.5q28 0 39.5 23.5q11.5 23.5 11.5 66.5l134 0q-1 -109 -43.5 -163q-42.5 -54 -123.5 -54q-40 0 -66.5 13.5q-26.5 13.5 -46.5 30q-20 16.5 -37 30.5q-17 14 -37 14q-32 0 -44.5 -22.5q-12.5 -22.5 -12.5 -60.5l-134 0q1 106 44 161t128 55z" />
<glyph unicode="&#160;" horiz-adv-x="200" />
<glyph unicode="&#162;" horiz-adv-x="559" d="M211 -120v113q-90 16 -132 78q-42 62 -42 184q0 121 42 183q42 62 132 79l0 113h144v-112q74 -11 118.5 -51.5q44.5 -40.5 50.5 -122.5l-165 0q-3 32 -20.5 48q-17.5 16 -54.5 16q-42 0 -61 -23q-19 -23 -19 -74v-106q0 -54 19.5 -78.5q19.5 -24.5 60.5 -24.5q38 0 56 15.5q18 15.5 22 48.5l165 0q-10 -76 -52 -118.5q-42 -42.5 -120 -54.5l0 -113z" />
<glyph unicode="&#163;" horiz-adv-x="672" d="M77 371h59q-21 28 -38 61q-17 33 -17 80q0 96 72 143.5q72 47.5 197 47.5q120 0 189 -46.5q69 -46.5 75 -149.5l-172 0q-4 36 -28 50.5q-24 14.5 -64 14.5q-46 0 -71.5 -17q-25.5 -17 -25.5 -61v-7q0 -19 6 -34q6 -15 15 -28.5q9 -13.5 20.5 -26q11.5 -12.5 22.5 -27.5l182 0v-113h-141v-5q0 -69 -59 -112l323 0v-141h-572v134q29 0 55.5 6q26.5 6 47 18q20.5 12 33 30.5q12.5 18.5 12.5 44.5v15q0 6 -1 10l-120 0z" />
<glyph unicode="&#164;" horiz-adv-x="670" d="M431 170q-41 -15 -96 -15q-55 0 -97 15l-83 -83l-80 82l73 74q-25 44 -25 105q0 62 26 106l-74 75l80 81l83 -82q21 8 45 12q24 4 52 4q54 0 97 -17l84 83l79 -81l-74 -75q26 -44 26 -106q0 -61 -26 -105l74 -74l-80 -82zM335 265q80 0 80 83q0 85 -80 85q-80 0 -80 -85q0 -83 80 -83z" />
<glyph unicode="&#165;" horiz-adv-x="698" d="M356 429l164 261h168l-202 -310h112v-113h-168v-62h168v-113h-168v-92h-167v92h-169v113h169v62h-169v113h113l-197 310l180 0z" />
<glyph unicode="&#166;" horiz-adv-x="287" d="M68 360v370h151v-370zM68 -200v370h151l0 -370z" />
<glyph unicode="&#167;" horiz-adv-x="651" d="M604 288q0 -52 -23 -88q-23 -36 -64 -59q27 -22 44 -51.5q17 -29.5 17 -70.5q0 -45 -19 -79q-19 -34 -53 -56.5q-34 -22.5 -79.5 -33.5q-45.5 -11 -99.5 -11q-260 0 -263 188l172 0q2 -29 20 -45q18 -16 71 -16q43 0 64.5 11q21.5 11 21.5 37v11q0 21 -27 36q-27 15 -68 28.5q-41 13.5 -88 29q-47 15.5 -88 39q-41 23.5 -68 56.5q-27 33 -27 82q0 54 23 89q23 35 65 59q-26 21 -41.5 49.5q-15.5 28.5 -15.5 68.5q0 46 18.5 80q18.5 34 51.5 56.5q33 22.5 77.5 33.5q44.5 11 96.5 11q254 0 256 -188l-172 0q-2 29 -18.5 45q-16.5 16 -65.5 16q-40 0 -59.5 -11q-19.5 -11 -19.5 -37v-11q0 -21 26.5 -36q26.5 -15 67 -28.5q40.5 -13.5 87 -29q46.5 -15.5 87 -38q40.5 -22.5 67 -55.5q26.5 -33 26.5 -82zt0 0zM448 268q0 24 -19 40.5q-19 16.5 -49 29.5q-30 13 -68 25q-38 12 -75 26q-35 -23 -35 -64v-9q0 -24 19 -41q19 -17 49 -30q30 -13 67.5 -25q37.5 -12 75.5 -26q35 24 35 65z" />
<glyph unicode="&#168;" horiz-adv-x="476" d="M426 668q0 -40 -21 -60q-21 -20 -59 -20q-39 0 -60 20q-21 20 -21 60q0 39 21 59.5q21 20.5 60 20.5q38 0 59 -20.5q21 -20.5 21 -59.5zt0 0zM212 668q0 -40 -21 -60q-21 -20 -60 -20q-39 0 -60 20q-21 20 -21 60q0 39 21 59.5q21 20.5 60 20.5q39 0 60 -20.5t21 -59.5z" />
<glyph unicode="&#169;" horiz-adv-x="862" d="M598 282q-9 -69 -53 -98.5q-44 -29.5 -110 -29.5q-92 0 -134.5 52q-42.5 52 -42.5 140q0 87 43 138.5q43 51.5 135 51.5q34 0 62.5 -6.5q28.5 -6.5 49.5 -21.5q21 -15 34 -40.5q13 -25.5 15 -63.5l-110 0q-2 22 -16 30q-14 8 -35 8q-59 0 -59 -76v-40q0 -38 14 -58.5q14 -20.5 44 -20.5q22 0 35 7q13 7 17 28zM809 345q0 -86 -27 -152.5q-27 -66.5 -76 -112q-49 -45.5 -118 -69.5q-69 -24 -153 -24q-84 0 -153 24q-69 24 -118.5 69.5q-49.5 45.5 -76.5 112q-27 66.5 -27 152.5q0 85 27 152q27 67 76.5 112.5q49.5 45.5 118.5 69.5q69 24 153 24q84 0 153 -24q69 -24 118 -69.5q49 -45.5 76 -112.5q27 -67 27 -152zt0 0zM435 64q64 0 116.5 17q52.5 17 89.5 51.5q37 34.5 57.5 87.5q20.5 53 20.5 125q0 72 -20.5 124.5q-20.5 52.5 -57.5 87.5q-37 35 -89.5 52q-52.5 17 -116.5 17q-64 0 -116.5 -17q-52.5 -17 -89.5 -52q-37 -35 -57.5 -87.5q-20.5 -52.5 -20.5 -124.5q0 -72 20.5 -125q20.5 -53 57.5 -87.5q37 -34.5 89.5 -51.5t116.5 -17z" />
<glyph unicode="&#170;" horiz-adv-x="513" d="M326 610q0 60 -63 60q-31 0 -44.5 -12.5q-13.5 -12.5 -18.5 -37.5l-147 0q5 69 56 106.5q51 37.5 154 37.5q99 0 151.5 -38.5q52.5 -38.5 52.5 -115.5v-290h-136v54q-22 -30 -57.5 -47q-35.5 -17 -90.5 -17q-71 0 -108.5 33.5q-37.5 33.5 -37.5 90.5q0 67 43.5 102.5q43.5 35.5 142.5 43.5l103 8zM179 447q0 -43 59 -43q44 0 66 20q22 20 22 58v31l-86 -7q-31 -3 -46 -13q-15 -10 -15 -33z" />
<glyph unicode="&#171;" horiz-adv-x="560" d="M148 259l113 -86v-155l-223 180v117l223 180v-151zM395 259l113 -86v-155l-223 180v117l223 180l0 -151z" />
<glyph unicode="&#172;" horiz-adv-x="650" d="M442 156v201h-378v141h522l0 -342z" />
<glyph unicode="&#173;" horiz-adv-x="420" d="M50 180v156h320l0 -156z" />
<glyph unicode="&#174;" horiz-adv-x="594" d="M534 478q0 -54 -17 -96q-17 -42 -48 -70.5q-31 -28.5 -74.5 -43q-43.5 -14.5 -97.5 -14.5q-53 0 -96.5 14.5q-43.5 14.5 -75 43q-31.5 28.5 -48.5 70.5q-17 42 -17 96q0 55 17 97q17 42 48.5 70.5q31.5 28.5 75 43q43.5 14.5 96.5 14.5q54 0 97.5 -14.5q43.5 -14.5 74.5 -43q31 -28.5 48 -70.5q17 -42 17 -97zt0 0zM297 306q80 0 128 41q48 41 48 131q0 91 -47.5 132q-47.5 41 -128.5 41q-81 0 -128 -41q-47 -41 -47 -132q0 -90 47.5 -131q47.5 -41 127.5 -41zt0 0zM403 515q0 -43 -32 -64l35 -79h-65l-30 65h-2h-36v-65h-62v224h98q48 0 71 -22.5q23 -22.5 23 -58.5zt0 0zM334 522q0 21 -27 21h-34v-53h34q27 0 27 19z" />
<glyph unicode="&#176;" horiz-adv-x="480" d="M240 353q-93 0 -145 44.5q-52 44.5 -52 129.5q0 83 52 129.5q52 46.5 145 46.5q93 0 144.5 -47.5q51.5 -47.5 51.5 -128.5q0 -82 -51.5 -128q-51.5 -46 -144.5 -46zt0 0zM240 452q66 0 66 75q0 37 -16.5 57q-16.5 20 -49.5 20q-34 0 -50 -20q-16 -20 -16 -57q0 -75 66 -75z" />
<glyph unicode="&#177;" horiz-adv-x="650" d="M253 395h-189v141h189v143h144v-143h189v-141h-189v-142h-144zM64 50v141h522l0 -141z" />
<glyph unicode="&#178;" horiz-adv-x="451" d="M214 717q-52 0 -55 -44l-132 0q2 39 16 65.5q14 26.5 38 43q24 16.5 57.5 24q33.5 7.5 73.5 7.5q43 0 77.5 -7q34.5 -7 59 -23q24.5 -16 37.5 -40.5q13 -24.5 13 -60.5q0 -38 -16 -62q-16 -24 -40.5 -40q-24.5 -16 -53.5 -26.5q-29 -10.5 -55.5 -21q-26.5 -10.5 -46.5 -22.5q-20 -12 -25 -31l237 0v-104h-370v61q0 47 17.5 77.5q17.5 30.5 44 50.5q26.5 20 57.5 32q31 12 57.5 22.5q26.5 10.5 44 21q17.5 10.5 17.5 27.5v12q0 21 -13 29.5t-40 8.5z" />
<glyph unicode="&#179;" horiz-adv-x="446" d="M225 457q30 0 45 9q15 9 15 32v12q0 35 -63 35h-42v96h41q24 0 36 8.5q12 8.5 12 20.5v12q0 20 -12.5 28q-12.5 8 -35.5 8q-23 0 -36 -7q-13 -7 -17 -30l-128 0q1 37 15.5 62.5q14.5 25.5 38.5 41q24 15.5 57 22q33 6.5 72 6.5q81 0 129 -28.5q48 -28.5 48 -86.5q0 -36 -21 -62.5q-21 -26.5 -66 -38.5q103 -20 103 -100q0 -65 -47 -100q-47 -35 -143 -35q-93 0 -142 32q-49 32 -54 106l131 0q5 -20 18.5 -31.5t45.5 -11.5z" />
<glyph unicode="&#182;" horiz-adv-x="728" d="M274 -150v428h-9q-53 0 -95 10q-42 10 -71 34q-29 24 -44 63q-15 39 -15 98q0 58 14.5 98q14.5 40 42.5 64q28 24 69 34.5q41 10.5 93 10.5h159v-840zM515 -150v840h143l0 -840z" />
<glyph unicode="&#183;" horiz-adv-x="287" d="M234 275q0 -45 -23 -66q-23 -21 -67 -21q-44 0 -67.5 21q-23.5 21 -23.5 66q0 45 23.5 65.5q23.5 20.5 67.5 20.5q44 0 67 -20.5t23 -65.5z" />
<glyph unicode="&#185;" horiz-adv-x="331" d="M22 719l105 81h131v-425h-131v302l-105 -85z" />
<glyph unicode="&#186;" horiz-adv-x="528" d="M264 310q-55 0 -97 12q-42 12 -71 39q-29 27 -44 70.5q-15 43.5 -15 106.5q0 123 58.5 174.5q58.5 51.5 168.5 51.5q55 0 97 -12.5q42 -12.5 71 -39.5q29 -27 44 -70q15 -43 15 -104q0 -63 -15 -106.5q-15 -43.5 -44 -70.5q-29 -27 -71 -39q-42 -12 -97 -12zt0 0zM264 409q42 0 63.5 20q21.5 20 21.5 71v79q0 47 -21.5 66.5q-21.5 19.5 -63.5 19.5q-42 0 -63.5 -19.5q-21.5 -19.5 -21.5 -66.5v-80q0 -50 21.5 -70t63.5 -20z" />
<glyph unicode="&#187;" horiz-adv-x="560" d="M412 254l-113 86v155l223 -180v-117l-223 -180v151zM165 254l-113 86v155l223 -180v-117l-223 -180l0 151z" />
<glyph unicode="&#188;" horiz-adv-x="962" d="M22 669l105 81h131v-425h-131v302l-105 -85zM647 750h141l-534 -750h-141zM868 425v-250h66v-100h-66v-75h-124v75h-227v91l169 259zM744 175v166l-108 -166z" />
<glyph unicode="&#189;" horiz-adv-x="1006" d="M22 669l105 81h131v-425h-131v302l-105 -85zM647 750h141l-534 -750h-141zM768 342q-52 0 -55 -44l-132 0q2 39 16 65.5q14 26.5 38 43q24 16.5 57.5 24q33.5 7.5 73.5 7.5q43 0 77.5 -7q34.5 -7 59 -23q24.5 -16 37.5 -40.5q13 -24.5 13 -60.5q0 -38 -16 -62q-16 -24 -40.5 -40q-24.5 -16 -53.5 -26.5q-29 -10.5 -55.5 -21q-26.5 -10.5 -46.5 -22.5q-20 -12 -25 -31l237 0v-104h-370v61q0 47 17.5 77.5q17.5 30.5 44 50.5q26.5 20 57.5 32q31 12 57.5 22.5q26.5 10.5 44 21q17.5 10.5 17.5 27.5v12q0 21 -13 29.5t-40 8.5z" />
<glyph unicode="&#190;" horiz-adv-x="1057" d="M739 750h141l-534 -750h-141zM964 425v-250h66v-100h-66v-75h-124v75h-227v91l169 259zM840 175v166l-108 -166zM225 407q30 0 45 9q15 9 15 32v12q0 35 -63 35h-42v96h41q24 0 36 8.5q12 8.5 12 20.5v12q0 20 -12.5 28q-12.5 8 -35.5 8q-23 0 -36 -7q-13 -7 -17 -30l-128 0q1 37 15.5 62.5q14.5 25.5 38.5 41q24 15.5 57 22q33 6.5 72 6.5q81 0 129 -28.5q48 -28.5 48 -86.5q0 -36 -21 -62.5q-21 -26.5 -66 -38.5q103 -20 103 -100q0 -65 -47 -100q-47 -35 -143 -35q-93 0 -142 32q-49 32 -54 106l131 0q5 -20 18.5 -31.5t45.5 -11.5z" />
<glyph unicode="&#203;" horiz-adv-x="611" d="M70 0v690h494v-137h-327v-133h246v-134h-246v-149h331v-137zM520 838q0 -42 -22 -62.5q-22 -20.5 -62 -20.5q-41 0 -63 20.5q-22 20.5 -22 62.5q0 40 22 60.5q22 20.5 63 20.5q40 0 62 -20.5q22 -20.5 22 -60.5zt0 0zM283 838q0 -42 -22 -62.5q-22 -20.5 -63 -20.5q-41 0 -62.5 20.5q-21.5 20.5 -21.5 62.5q0 40 21.5 60.5q21.5 20.5 62.5 20.5q41 0 63 -20.5t22 -60.5z" />
<glyph unicode="&#215;" horiz-adv-x="650" d="M226 351l-165 166l99 99l165 -166l166 166l99 -99l-166 -166l166 -165l-99 -99l-166 165l-165 -165l-99 99z" />
<glyph unicode="&#235;" horiz-adv-x="582" d="M292 99q38 0 63 16q25 16 28 56l163 0q-11 -96 -76.5 -140q-65.5 -44 -177.5 -44q-129 0 -192 64q-63 64 -63 202q0 140 63.5 205q63.5 65 191.5 65q125 0 189 -58.5q64 -58.5 64 -191.5v-31h-348v-31q0 -60 25 -86q25 -26 70 -26zt0 0zM291 411q-44 0 -67 -18q-23 -18 -27 -60l183 0q-3 43 -24 60.5q-21 17.5 -65 17.5zt0 0zM479 668q0 -40 -21 -60q-21 -20 -59 -20q-39 0 -60 20q-21 20 -21 60q0 39 21 59.5q21 20.5 60 20.5q38 0 59 -20.5q21 -20.5 21 -59.5zt0 0zM265 668q0 -40 -21 -60q-21 -20 -60 -20q-39 0 -60 20q-21 20 -21 60q0 39 21 59.5q21 20.5 60 20.5q39 0 60 -20.5t21 -59.5z" />
<glyph unicode="&#247;" horiz-adv-x="650" d="M414 570q0 -43 -23 -63q-23 -20 -66 -20q-42 0 -65 20q-23 20 -23 63q0 42 23 62q23 20 65 21q43 -1 66 -21q23 -20 23 -62zt0 0zM414 133q0 -42 -23 -62.5q-23 -20.5 -66 -20.5q-42 0 -65 20.5q-23 20.5 -23 62.5q0 43 23 63q23 20 65 20q43 0 66 -20q23 -20 23 -63zt0 0zM64 281v141h522l0 -141z" />
<glyph unicode="&#305;" horiz-adv-x="282" d="M60 0v510h162l0 -510z" />
<glyph unicode="&#567;" horiz-adv-x="282" d="M0 -71q34 0 47 15q13 15 13 49v517h162v-538q0 -45 -7.5 -77.5q-7.5 -32.5 -25.5 -53.5q-18 -21 -48.5 -31q-30.5 -10 -77.5 -10h-107l0 129z" />
<glyph unicode="&#700;" horiz-adv-x="287" d="M142 703q42 0 67 -21q25 -21 25 -71v-65q0 -45 -8.5 -76q-8.5 -31 -27.5 -49.5q-19 -18.5 -48 -26.5q-29 -8 -71 -8l0 83q38 0 51.5 14q13.5 14 13.5 41v6h-3q-39 0 -63.5 20.5q-24.5 20.5 -24.5 69.5q0 42 23 62.5t66 20.5z" />
<glyph unicode="&#729;" horiz-adv-x="290" d="M233 668q0 -43 -23 -63.5q-23 -20.5 -65 -20.5q-42 0 -65 20.5q-23 20.5 -23 63.5q0 43 23 63q23 20 65 20q42 0 65 -20t23 -63z" />
<glyph unicode="&#1025;" horiz-adv-x="611" d="M70 0v690h494v-137h-327v-133h246v-134h-246v-149h331v-137zM520 838q0 -42 -22 -62.5q-22 -20.5 -62 -20.5q-41 0 -63 20.5q-22 20.5 -22 62.5q0 40 22 60.5q22 20.5 63 20.5q40 0 62 -20.5q22 -20.5 22 -60.5zt0 0zM283 838q0 -42 -22 -62.5q-22 -20.5 -63 -20.5q-41 0 -62.5 20.5q-21.5 20.5 -21.5 62.5q0 40 21.5 60.5q21.5 20.5 62.5 20.5q41 0 63 -20.5t22 -60.5z" />
<glyph unicode="&#1028;" horiz-adv-x="702" d="M359 -13q-77 0 -136 19.5q-59 19.5 -99 62.5q-40 43 -61 111.5q-21 68.5 -21 166.5q0 95 21 162.5q21 67.5 61 110.5q40 43 99 63q59 20 136 20q67 0 120.5 -13q53.5 -13 92 -42q38.5 -29 61.5 -74.5q23 -45.5 31 -111.5l-172 0q-8 62 -42 85q-34 23 -91 23q-33 0 -59 -8q-26 -8 -44.5 -26q-18.5 -18 -29 -47.5q-10.5 -29.5 -12.5 -72.5l228 0v-128h-228q1 -47 10.5 -79q9.5 -32 28 -52q18.5 -20 45 -28.5q26.5 -8.5 61.5 -8.5q55 0 89 22.5q34 22.5 45 85.5l172 0q-8 -65 -31.5 -110.5q-23.5 -45.5 -62.5 -74.5q-39 -29 -92 -42.5t-120 -13.5z" />
<glyph unicode="&#1030;" horiz-adv-x="307" d="M70 0v690h167l0 -690z" />
<glyph unicode="&#1031;" horiz-adv-x="307" d="M295 836q0 -42 -17 -63q-17 -21 -49 -21q-65 0 -65 84q0 83 65 83q32 0 49 -20.5q17 -20.5 17 -62.5zt0 0zM143 836q0 -84 -66 -84q-31 0 -48 21q-17 21 -17 63q0 42 17 62.5q17 20.5 48 20.5q66 0 66 -83zt0 0zM70 0v690h167l0 -690z" />
<glyph unicode="&#1032;" horiz-adv-x="382" d="M147 690h167v-543q0 -73 -36.5 -110q-36.5 -37 -129.5 -37h-125v134h55q38 0 53.5 19q15.5 19 15.5 58z" />
<glyph unicode="&#1038;" horiz-adv-x="680" d="M273 175l-263 515h175l170 -337l155 337h160l-316 -690h-161zM554 908q0 -86 -49.5 -128q-49.5 -42 -154.5 -42q-106 0 -155.5 42q-49.5 42 -49.5 128l142 0q0 -41 15.5 -57.5q15.5 -16.5 47.5 -16.5q32 0 47 16.5q15 16.5 15 57.5z" />
<glyph unicode="&#1040;" horiz-adv-x="710" d="M474 690l224 -690h-175l-49 152h-262l-47 -152h-153l217 690zM251 279h182l-92 289z" />
<glyph unicode="&#1041;" horiz-adv-x="671" d="M631 220q0 -103 -55.5 -161.5q-55.5 -58.5 -172.5 -58.5h-333v690h514v-137h-350v-124h169q117 0 172.5 -54.5q55.5 -54.5 55.5 -154.5zt0 0zM459 233q0 71 -83 71h-142v-172h142q83 0 83 70z" />
<glyph unicode="&#1042;" horiz-adv-x="671" d="M634 201q0 -97 -57 -149q-57 -52 -172 -52h-335v690h335q101 0 155 -42.5q54 -42.5 54 -127.5q0 -51 -24.5 -93q-24.5 -42 -86.5 -63q69 -18 100 -60q31 -42 31 -103zt0 0zM462 227q0 33 -23 52.5q-23 19.5 -71 19.5h-134v-179h134q94 0 94 74zM443 505q0 32 -22 48.5q-22 16.5 -62 16.5h-125v-160h125q40 0 62 17q22 17 22 52z" />
<glyph unicode="&#1043;" horiz-adv-x="559" d="M539 690v-141h-302v-549h-167l0 690z" />
<glyph unicode="&#1044;" horiz-adv-x="769" d="M7 141h71q19 33 37.5 106.5q18.5 73.5 18.5 181.5v261h532v-549h90v-291h-157v150h-435v-150h-157zM288 549v-120q0 -109 -14.5 -182q-14.5 -73 -31.5 -106l257 0l0 408z" />
<glyph unicode="&#1045;" horiz-adv-x="611" d="M70 0v690h494v-137h-327v-133h246v-134h-246v-149h331l0 -137z" />
<glyph unicode="&#1046;" horiz-adv-x="1035" d="M599 421h51l178 269h171l-216 -327l240 -363h-190l-185 279h-49v-279h-167v279h-49l-184 -279h-187l235 355l-222 335h179l177 -269h51v269l167 0z" />
<glyph unicode="&#1047;" horiz-adv-x="675" d="M344 117q60 0 91.5 17.5q31.5 17.5 31.5 62.5v21q0 38 -28.5 55q-28.5 17 -77.5 17h-104v127h104q44 0 67 17q23 17 23 49v19q0 39 -28 55q-28 16 -82 16q-57 0 -87.5 -20.5q-30.5 -20.5 -38.5 -74.5l-172 0q12 119 87.5 172q75.5 53 208.5 53q284 0 284 -190q0 -54 -34 -94q-34 -40 -98 -58q72 -15 110 -59q38 -44 38 -106q0 -106 -74.5 -157.5q-74.5 -51.5 -220.5 -51.5q-141 0 -218 54.5q-77 54.5 -88 173.5l172 0q4 -52 37 -75t97 -23z" />
<glyph unicode="&#1048;" horiz-adv-x="744" d="M70 0v690h167v-458l248 458h189v-690h-167v458l-248 -458z" />
<glyph unicode="&#1049;" horiz-adv-x="744" d="M70 0v690h167v-458l248 458h189v-690h-167v458l-248 -458zM574 908q0 -86 -49.5 -128q-49.5 -42 -154.5 -42q-106 0 -155.5 42q-49.5 42 -49.5 128l142 0q0 -41 15.5 -57.5q15.5 -16.5 47.5 -16.5q32 0 47 16.5q15 16.5 15 57.5z" />
<glyph unicode="&#1050;" horiz-adv-x="684" d="M237 419h44l194 271h179l-236 -332l257 -358h-195l-200 277h-43v-277h-167v690l167 0z" />
<glyph unicode="&#1051;" horiz-adv-x="727" d="M490 0v549h-200v-163q0 -116 -13 -191q-13 -75 -41 -118.5q-28 -43.5 -72 -60q-44 -16.5 -107 -16.5h-39v154h18q29 0 48.5 12q19.5 12 31 39.5q11.5 27.5 16 71.5q4.5 44 4.5 109v304h521l0 -690z" />
<glyph unicode="&#1052;" horiz-adv-x="914" d="M465 204l125 486h254v-690h-167v558l-144 -558h-164l-144 561v-561h-155v690l271 0z" />
<glyph unicode="&#1053;" horiz-adv-x="727" d="M490 0v281h-253v-281h-167v690h167v-268h253v268h167l0 -690z" />
<glyph unicode="&#1054;" horiz-adv-x="760" d="M719 352q0 -101 -22 -170.5q-22 -69.5 -64.5 -113q-42.5 -43.5 -106 -62.5q-63.5 -19 -146.5 -19q-83 0 -146 19q-63 19 -106 62.5q-43 43.5 -64.5 113q-21.5 69.5 -21.5 170.5q0 96 21.5 163q21.5 67 64.5 109q43 42 106 60.5q63 18.5 146 18.5q83 0 146.5 -18.5q63.5 -18.5 106 -60.5q42.5 -42 64.5 -109q22 -67 22 -163zt0 0zM547 388q0 97 -41 139.5q-41 42.5 -126 42.5q-85 0 -125.5 -42.5q-40.5 -42.5 -40.5 -139.5v-85q0 -51 10 -86q10 -35 30.5 -56.5q20.5 -21.5 52 -31q31.5 -9.5 73.5 -9.5q42 0 73.5 9.5q31.5 9.5 52.5 31q21 21.5 31 56.5q10 35 10 86z" />
<glyph unicode="&#1055;" horiz-adv-x="717" d="M480 0v549h-243v-549h-167v690h577l0 -690z" />
<glyph unicode="&#1056;" horiz-adv-x="657" d="M630 455q0 -110 -58 -169.5q-58 -59.5 -181 -59.5h-154v-226h-167v690h321q122 0 180.5 -62.5q58.5 -62.5 58.5 -172.5zt0 0zM458 473q0 37 -21 57.5q-21 20.5 -65 20.5h-135v-186h135q43 0 64.5 19.5q21.5 19.5 21.5 54.5z" />
<glyph unicode="&#1057;" horiz-adv-x="702" d="M359 -13q-77 0 -136 19.5q-59 19.5 -99 62.5q-40 43 -61 111.5q-21 68.5 -21 166.5q0 95 21 162.5q21 67.5 61 110.5q40 43 99 63q59 20 136 20q67 0 120.5 -13q53.5 -13 92 -42q38.5 -29 61.5 -74.5q23 -45.5 31 -111.5l-172 0q-8 62 -42 85q-34 23 -91 23q-34 0 -61 -8.5q-27 -8.5 -45.5 -29q-18.5 -20.5 -28.5 -53.5q-10 -33 -10 -82v-102q0 -49 9.5 -82.5q9.5 -33.5 28 -54q18.5 -20.5 45.5 -29.5q27 -9 62 -9q55 0 89 22.5q34 22.5 45 85.5l172 0q-8 -65 -31.5 -110.5q-23.5 -45.5 -62.5 -74.5q-39 -29 -92 -42.5t-120 -13.5z" />
<glyph unicode="&#1058;" horiz-adv-x="617" d="M392 549v-549h-167v549h-205v141h577l0 -141z" />
<glyph unicode="&#1059;" horiz-adv-x="680" d="M273 175l-263 515h175l170 -337l155 337h160l-316 -690l-161 0z" />
<glyph unicode="&#1060;" horiz-adv-x="898" d="M533 -13h-168v103q-163 3 -247.5 67q-84.5 64 -84.5 205q0 73 21.5 124.5q21.5 51.5 63.5 84q42 32.5 104 47.5q62 15 143 17l0 68h168v-68q82 -2 144 -17q62 -15 104 -47.5q42 -32.5 63 -84q21 -51.5 21 -124.5q0 -141 -84.5 -205q-84.5 -64 -247.5 -67zM365 504q-87 -2 -123 -31.5q-36 -29.5 -36 -90.5v-40q0 -33 8 -56q8 -23 26.5 -37q18.5 -14 49 -20.5q30.5 -6.5 75.5 -7.5zM533 221q45 1 75.5 7.5q30.5 6.5 49 20.5q18.5 14 26.5 37q8 23 8 56v40q0 62 -35.5 91q-35.5 29 -123.5 31z" />
<glyph unicode="&#1061;" horiz-adv-x="671" d="M340 469l137 221h167l-215 -344l229 -346h-181l-150 224l-141 -224h-168l221 346l-226 344l182 0z" />
<glyph unicode="&#1062;" horiz-adv-x="751" d="M237 690v-549h243v549h167v-549h90v-291h-157v150h-510l0 690z" />
<glyph unicode="&#1063;" horiz-adv-x="707" d="M634 0h-167v251q-26 -2 -60 -4q-34 -2 -69 -2q-69 0 -121.5 13q-52.5 13 -88 42.5q-35.5 29.5 -53 76.5q-17.5 47 -17.5 116v197h167v-180q0 -38 7.5 -62.5q7.5 -24.5 23.5 -39q16 -14.5 39.5 -20q23.5 -5.5 56.5 -5.5q29 0 59 1.5q30 1.5 56 3.5l0 302l167 0z" />
<glyph unicode="&#1064;" horiz-adv-x="1016" d="M946 690v-690h-876v690h167v-549h187v549h168v-549h187l0 549z" />
<glyph unicode="&#1065;" horiz-adv-x="1049" d="M946 690v-549h90v-291h-157v150h-809v690h167v-549h187v549h168v-549h187l0 549z" />
<glyph unicode="&#1066;" horiz-adv-x="748" d="M722 242q0 -115 -59 -178.5q-59 -63.5 -184 -63.5h-317v549h-142v141h309v-208h150q125 0 184 -62.5q59 -62.5 59 -177.5zt0 0zM550 261q0 38 -22.5 60q-22.5 22 -67.5 22h-131v-204h131q43 0 66.5 23.5q23.5 23.5 23.5 59.5z" />
<glyph unicode="&#1067;" horiz-adv-x="938" d="M630 242q0 -115 -59 -178.5q-59 -63.5 -184 -63.5h-317v690h167v-208h150q125 0 184 -62.5q59 -62.5 59 -177.5zt0 0zM458 261q0 38 -22.5 60q-22.5 22 -67.5 22h-131v-204h131q43 0 66.5 23.5q23.5 23.5 23.5 59.5zM701 0v690h167l0 -690z" />
<glyph unicode="&#1068;" horiz-adv-x="657" d="M630 242q0 -115 -59 -178.5q-59 -63.5 -184 -63.5h-317v690h167v-208h150q125 0 184 -62.5q59 -62.5 59 -177.5zt0 0zM458 261q0 38 -22.5 60q-22.5 22 -67.5 22h-131v-204h131q43 0 66.5 23.5q23.5 23.5 23.5 59.5z" />
<glyph unicode="&#1069;" horiz-adv-x="702" d="M343 -13q-134 0 -213.5 56.5q-79.5 56.5 -92.5 184.5l172 0q8 -63 43.5 -85.5q35.5 -22.5 90.5 -22.5q34 0 61 8.5q27 8.5 45.5 28q18.5 19.5 28 52q9.5 32.5 10.5 79.5l-228 0v128h227q-2 43 -12.5 72.5q-10.5 29.5 -28.5 47.5q-18 18 -44 26q-26 8 -58 8q-57 0 -90.5 -24q-33.5 -24 -41.5 -84l-172 0q12 127 91 184q79 57 213 57q76 0 135 -19.5q59 -19.5 99.5 -62q40.5 -42.5 61 -110.5q20.5 -68 20.5 -164q0 -99 -21 -168q-21 -69 -61 -111.5q-40 -42.5 -99.5 -61.5t-135.5 -19z" />
<glyph unicode="&#1070;" horiz-adv-x="1027" d="M986 347q0 -99 -21 -168q-21 -69 -62.5 -111.5q-41.5 -42.5 -103 -61.5q-61.5 -19 -142.5 -19q-74 0 -132 16q-58 16 -99 51.5q-41 35.5 -65 93q-24 57.5 -30 140.5l-94 0v-288h-167v690h167v-268h95q8 76 32.5 129.5q24.5 53.5 65.5 87q41 33.5 98 49q57 15.5 129 15.5q81 0 142.5 -19q61.5 -19 103 -61.5q41.5 -42.5 62.5 -110.5q21 -68 21 -165zt0 0zM814 392q0 95 -38.5 136.5q-38.5 41.5 -118.5 41.5q-80 0 -118 -41.5q-38 -41.5 -38 -136.5v-92q0 -50 9.5 -84.5q9.5 -34.5 29 -55.5q19.5 -21 48.5 -30.5q29 -9.5 69 -9.5q40 0 69.5 9.5q29.5 9.5 49 30.5q19.5 21 29 55.5q9.5 34.5 9.5 84.5z" />
<glyph unicode="&#1071;" horiz-adv-x="681" d="M55 464q0 105 65 165.5q65 60.5 186 60.5h305v-690h-168v239h-109l-118 -239h-176l131 265q-57 26 -86.5 76.5q-29.5 50.5 -29.5 122.5zt0 0zM228 452q0 -38 23 -58.5q23 -20.5 66 -20.5h126v182h-126q-42 0 -65.5 -18.5q-23.5 -18.5 -23.5 -56.5z" />
<glyph unicode="&#1072;" horiz-adv-x="593" d="M40 140q0 81 52.5 119.5q52.5 38.5 162.5 47.5l121 9v21q0 41 -18 57.5q-18 16.5 -54 16.5q-37 0 -54.5 -14q-17.5 -14 -22.5 -43l-168 0q6 83 66 126q60 43 178 43q116 0 175.5 -44.5q59.5 -44.5 59.5 -141.5v-337h-156v62q-26 -37 -67 -56q-41 -19 -104 -19q-84 0 -127.5 43q-43.5 43 -43.5 110zt0 0zM274 96q50 0 76 25q26 25 26 71v32l-100 -9q-35 -3 -52.5 -14.5q-17.5 -11.5 -17.5 -37.5v-16q0 -51 68 -51z" />
<glyph unicode="&#1073;" horiz-adv-x="611" d="M38 303q0 127 19 208.5q19 81.5 59 129q40 47.5 102 66q62 18.5 148 21.5q39 1 67.5 2q28.5 1 49 2.5q20.5 1.5 34.5 2.5q14 1 24 3l0 -139q-17 -3 -55 -5q-38 -2 -112 -4q-52 -2 -89 -9q-37 -7 -61.5 -28q-24.5 -21 -38.5 -59.5q-14 -38.5 -19 -102.5q54 112 193 112q110 0 163 -61.5q53 -61.5 53 -192.5q0 -136 -66 -199q-66 -63 -203 -63q-69 0 -119.5 16.5q-50.5 16.5 -83.5 53.5q-33 37 -49 97.5q-16 60.5 -16 148.5zt0 0zM306 102q53 0 77 23.5q24 23.5 24 89.5v60q0 63 -24 88q-24 25 -77 25q-52 0 -76.5 -25q-24.5 -25 -24.5 -88v-60q0 -66 24 -89.5t77 -23.5z" />
<glyph unicode="&#1074;" horiz-adv-x="588" d="M552 144q0 -144 -191 -144h-301v510h265q113 0 160.5 -33q47.5 -33 47.5 -92q0 -18 -5 -36.5q-5 -18.5 -18.5 -34q-13.5 -15.5 -36.5 -28q-23 -12.5 -59 -19.5q76 -11 107 -44q31 -33 31 -79zt0 0zM384 170q0 49 -66 49h-99v-115h99q33 0 49.5 11.5q16.5 11.5 16.5 37.5zM368 362q0 22 -13 33q-13 11 -45 11h-91v-101h91q32 0 45 11q13 11 13 32z" />
<glyph unicode="&#1075;" horiz-adv-x="466" d="M446 510v-129h-224v-381h-162l0 510z" />
<glyph unicode="&#1076;" horiz-adv-x="653" d="M7 129h58q20 36 28 90q8 54 8 134v157h460v-381h78v-269h-152v140h-328v-140h-152zM250 381v-29q0 -79 -7.5 -133q-7.5 -54 -24.5 -90l181 0l0 252z" />
<glyph unicode="&#1077;" horiz-adv-x="582" d="M292 99q38 0 63 16q25 16 28 56l163 0q-11 -96 -76.5 -140q-65.5 -44 -177.5 -44q-129 0 -192 64q-63 64 -63 202q0 140 63.5 205q63.5 65 191.5 65q125 0 189 -58.5q64 -58.5 64 -191.5v-31h-348v-31q0 -60 25 -86q25 -26 70 -26zt0 0zM291 411q-44 0 -67 -18q-23 -18 -27 -60l183 0q-3 43 -24 60.5t-65 17.5z" />
<glyph unicode="&#1078;" horiz-adv-x="824" d="M330 0v191h-39l-110 -191h-173l153 262l-144 248h165l110 -191h38v191h165v-191h37l111 191h159l-142 -243l156 -267h-173l-110 191h-38l0 -191z" />
<glyph unicode="&#1079;" horiz-adv-x="585" d="M224 209v106h68q35 0 54 10q19 10 19 36v13q0 24 -18.5 34q-18.5 10 -52.5 10q-42 0 -62 -16.5q-20 -16.5 -25 -48.5l-167 0q4 48 24 80.5q20 32.5 53 52.5q33 20 77.5 28.5q44.5 8.5 97.5 8.5q111 0 175.5 -33.5q64.5 -33.5 64.5 -106.5q0 -39 -25.5 -67.5q-25.5 -28.5 -76.5 -42.5q61 -14 87.5 -47q26.5 -33 26.5 -74q0 -84 -63.5 -124.5q-63.5 -40.5 -188.5 -40.5q-57 0 -102.5 9q-45.5 9 -78.5 29.5q-33 20.5 -53 54q-20 33.5 -26 82.5l167 0q7 -37 28 -53.5q21 -16.5 65 -16.5q45 0 64.5 12.5q19.5 12.5 19.5 41.5v13q0 28 -19 39q-19 11 -58 11z" />
<glyph unicode="&#1080;" horiz-adv-x="632" d="M410 0v327l-167 -327h-183v510h162v-327l167 327h183l0 -510z" />
<glyph unicode="&#1081;" horiz-adv-x="632" d="M410 0v327l-167 -327h-183v510h162v-327l167 327h183v-510zM503 749q0 -84 -45 -126q-45 -42 -142 -42q-97 0 -142 42q-45 42 -45 126l130 0q0 -47 14 -63q14 -16 43 -16q29 0 43 16q14 16 14 63z" />
<glyph unicode="&#1082;" horiz-adv-x="593" d="M60 0v510h162v-190h39l127 190h179l-162 -243l183 -267h-195l-131 191h-40l0 -191z" />
<glyph unicode="&#1083;" horiz-adv-x="597" d="M17 142h17q23 0 36 6q13 6 20 20.5q7 14.5 8.5 39.5q1.5 25 1.5 63v239h438v-510h-163v381h-126v-122q0 -72 -8 -121.5q-8 -49.5 -30 -80q-22 -30.5 -61 -44q-39 -13.5 -100 -13.5l-33 0z" />
<glyph unicode="&#1084;" horiz-adv-x="775" d="M391 158l90 352h234v-510h-156v390l-101 -390h-151l-103 392v-392h-144v510l240 0z" />
<glyph unicode="&#1085;" horiz-adv-x="615" d="M393 0v192h-171v-192h-162v510h162v-189h171v189h162l0 -510z" />
<glyph unicode="&#1086;" horiz-adv-x="610" d="M305 -13q-69 0 -119.5 14q-50.5 14 -83.5 46q-33 32 -49 83q-16 51 -16 125q0 73 16 124q16 51 49 83q33 32 83.5 46.5q50.5 14.5 119.5 14.5q68 0 118.5 -14.5q50.5 -14.5 83.5 -46.5q33 -32 49.5 -83q16.5 -51 16.5 -124q0 -74 -16.5 -125q-16.5 -51 -49.5 -83q-33 -32 -83.5 -46q-50.5 -14 -118.5 -14zt0 0zM305 102q51 0 76 24.5q25 24.5 25 84.5v93q0 57 -25 80.5q-25 23.5 -76 23.5q-51 0 -76 -23.5q-25 -23.5 -25 -80.5v-93q0 -60 25 -84.5t76 -24.5z" />
<glyph unicode="&#1087;" horiz-adv-x="605" d="M383 0v381h-161v-381h-162v510h485l0 -510z" />
<glyph unicode="&#1088;" horiz-adv-x="628" d="M60 -200v710h157v-62q51 75 164 75q103 0 156.5 -66.5q53.5 -66.5 53.5 -203.5q0 -132 -53 -199q-53 -67 -157 -67q-108 0 -159 67l0 -254zM323 102q53 0 77 25.5q24 25.5 24 79.5v101q0 50 -24 75q-24 25 -76 25q-52 0 -76 -23q-24 -23 -26 -68l0 -110q0 -54 24 -79.5t77 -25.5z" />
<glyph unicode="&#1089;" horiz-adv-x="559" d="M527 166q-11 -91 -70 -135q-59 -44 -173 -44q-127 0 -187 62q-60 62 -60 206q0 142 60 205q60 63 187 63q53 0 95.5 -9q42.5 -9 73.5 -30q31 -21 49 -55.5q18 -34.5 22 -84.5l-165 0q-3 32 -20.5 48q-17.5 16 -54.5 16q-42 0 -61 -23q-19 -23 -19 -74v-106q0 -54 19.5 -78.5q19.5 -24.5 60.5 -24.5q38 0 56 15.5q18 15.5 22 48.5l165 0z" />
<glyph unicode="&#1090;" horiz-adv-x="520" d="M341 381v-381h-162v381h-159v129h480l0 -129z" />
<glyph unicode="&#1091;" horiz-adv-x="567" d="M124 -75q22 0 36.5 2q14.5 2 24.5 8q10 6 17 17.5q7 11.5 13 29.5l1 3l-204 525h165l116 -311l113 311h149l-208 -569q-15 -42 -32.5 -69.5q-17.5 -27.5 -40 -43q-22.5 -15.5 -52 -22q-29.5 -6.5 -70.5 -6.5h-76l0 125z" />
<glyph unicode="&#1092;" horiz-adv-x="817" d="M37 255q0 138 73 203q73 65 217 65l0 207h163v-207q144 0 217 -64.5q73 -64.5 73 -203.5q0 -139 -73 -203.5q-73 -64.5 -217 -64.5l0 -187h-163v187q-144 0 -217 64q-73 64 -73 204zt0 0zM204 208q0 -54 28 -79q28 -25 95 -25l0 302q-65 0 -94 -22.5q-29 -22.5 -29 -79.5zM490 104q66 0 94.5 25q28.5 25 28.5 79v96q0 58 -29 80q-29 22 -94 22z" />
<glyph unicode="&#1093;" horiz-adv-x="567" d="M17 510h169l101 -145l94 145h156l-167 -253l181 -257h-170l-105 150l-99 -150h-156l173 257z" />
<glyph unicode="&#1094;" horiz-adv-x="639" d="M224 510v-381h161v381h162v-381h78v-269h-152v140h-411l0 510z" />
<glyph unicode="&#1095;" horiz-adv-x="587" d="M527 0h-162v184q-20 -4 -46.5 -6q-26.5 -2 -46.5 -2q-117 0 -170.5 46.5q-53.5 46.5 -53.5 154.5v133h162v-120q0 -52 18.5 -69q18.5 -17 61.5 -17q14 0 35 1q21 1 40 5l0 200l162 0z" />
<glyph unicode="&#1096;" horiz-adv-x="878" d="M818 0h-758v510h162v-381h136v381h162v-381h136v381l162 0z" />
<glyph unicode="&#1097;" horiz-adv-x="908" d="M818 129h78v-269h-152v140h-684v510h162v-381h136v381h162v-381h136v381l162 0z" />
<glyph unicode="&#1098;" horiz-adv-x="628" d="M134 381h-117v129h279v-145h119q94 0 142.5 -47q48.5 -47 48.5 -133q0 -91 -48.5 -138q-48.5 -47 -142.5 -47h-281zM439 197q0 28 -16 40.5q-16 12.5 -45 12.5h-82v-135h82q61 0 61 57z" />
<glyph unicode="&#1099;" horiz-adv-x="809" d="M60 510h162v-145h119q94 0 142.5 -47q48.5 -47 48.5 -133q0 -91 -48.5 -138q-48.5 -47 -142.5 -47h-281zM365 197q0 28 -16 40.5q-16 12.5 -45 12.5h-82v-135h82q61 0 61 57zM587 0v510h162l0 -510z" />
<glyph unicode="&#1100;" horiz-adv-x="552" d="M60 510h162v-145h119q94 0 142.5 -47q48.5 -47 48.5 -133q0 -91 -48.5 -138q-48.5 -47 -142.5 -47h-281zM365 197q0 28 -16 40.5q-16 12.5 -45 12.5h-82v-135h82q61 0 61 57z" />
<glyph unicode="&#1101;" horiz-adv-x="570" d="M197 166q4 -33 24 -48.5q20 -15.5 62 -15.5q44 0 65 23.5q21 23.5 21 79.5l-150 0v107h150q-1 51 -22 73.5q-21 22.5 -64 22.5q-41 0 -60 -16q-19 -16 -23 -48l-166 0q8 97 74 138q66 41 178 41q127 0 187 -62q60 -62 60 -206q0 -73 -15 -124q-15 -51 -45.5 -83q-30.5 -32 -77 -46.5q-46.5 -14.5 -109.5 -14.5q-120 0 -181.5 44q-61.5 44 -72.5 135z" />
<glyph unicode="&#1102;" horiz-adv-x="853" d="M553 -13q-116 0 -182 47.5q-66 47.5 -79 163.5l-70 0v-198h-162v510h162v-188h72q14 109 80 155q66 46 179 46q64 0 113 -14q49 -14 82.5 -46q33.5 -32 50.5 -83q17 -51 17 -125q0 -74 -17 -125.5q-17 -51.5 -50.5 -83q-33.5 -31.5 -82.5 -45.5q-49 -14 -113 -14zt0 0zM553 102q48 0 72 24.5q24 24.5 24 84.5v93q0 57 -24 80.5q-24 23.5 -72 23.5q-49 0 -72.5 -23.5q-23.5 -23.5 -23.5 -80.5v-93q0 -60 23.5 -84.5t72.5 -24.5z" />
<glyph unicode="&#1103;" horiz-adv-x="584" d="M37 0l108 195q-50 17 -77 52.5q-27 35.5 -27 92.5q0 83 52 126.5q52 43.5 151 43.5h280v-510h-162v165h-66l-92 -165zM209 325q0 -23 15 -36.5q15 -13.5 42 -13.5h96v125h-96q-57 0 -57 -49z" />
<glyph unicode="&#1105;" horiz-adv-x="582" d="M292 99q38 0 63 16q25 16 28 56l163 0q-11 -96 -76.5 -140q-65.5 -44 -177.5 -44q-129 0 -192 64q-63 64 -63 202q0 140 63.5 205q63.5 65 191.5 65q125 0 189 -58.5q64 -58.5 64 -191.5v-31h-348v-31q0 -60 25 -86q25 -26 70 -26zt0 0zM291 411q-44 0 -67 -18q-23 -18 -27 -60l183 0q-3 43 -24 60.5q-21 17.5 -65 17.5zt0 0zM479 668q0 -40 -21 -60q-21 -20 -59 -20q-39 0 -60 20q-21 20 -21 60q0 39 21 59.5q21 20.5 60 20.5q38 0 59 -20.5q21 -20.5 21 -59.5zt0 0zM265 668q0 -40 -21 -60q-21 -20 -60 -20q-39 0 -60 20q-21 20 -21 60q0 39 21 59.5q21 20.5 60 20.5q39 0 60 -20.5t21 -59.5z" />
<glyph unicode="&#1108;" horiz-adv-x="570" d="M538 166q-11 -91 -73.5 -135q-62.5 -44 -180.5 -44q-127 0 -187.5 62q-60.5 62 -59.5 206q0 72 15 122.5q15 50.5 45.5 83q30.5 32.5 77 47.5q46.5 15 110.5 15q55 0 99.5 -9.5q44.5 -9.5 77 -31q32.5 -21.5 51.5 -55.5q19 -34 22 -83l-166 0q-4 64 -81 64q-45 0 -66.5 -23q-21.5 -23 -21.5 -73l145 0v-107h-145q0 -54 21.5 -78.5q21.5 -24.5 65.5 -24.5q79 0 85 64z" />
<glyph unicode="&#1110;" horiz-adv-x="282" d="M60 0v510h162v-510zM229 668q0 -43 -23 -63.5q-23 -20.5 -65 -20.5q-42 0 -65 20.5q-23 20.5 -23 63.5q0 43 23 63q23 20 65 20q42 0 65 -20t23 -63z" />
<glyph unicode="&#1111;" horiz-adv-x="282" d="M275 668q0 -84 -63 -84q-65 0 -65 84q0 83 65 83q63 0 63 -83zt0 0zM135 668q0 -84 -64 -84q-64 0 -64 84q0 83 64 83q64 0 64 -83zt0 0zM60 0v510h162l0 -510z" />
<glyph unicode="&#1112;" horiz-adv-x="282" d="M0 -71q34 0 47 15q13 15 13 49v517h162v-538q0 -45 -7.5 -77.5q-7.5 -32.5 -25.5 -53.5q-18 -21 -48.5 -31q-30.5 -10 -77.5 -10h-107v129zM229 668q0 -43 -23 -63.5q-23 -20.5 -65 -20.5q-42 0 -65 20.5q-23 20.5 -23 63.5q0 43 23 63q23 20 65 20q42 0 65 -20t23 -63z" />
<glyph unicode="&#1118;" horiz-adv-x="567" d="M124 -75q22 0 36.5 2q14.5 2 24.5 8q10 6 17 17.5q7 11.5 13 29.5l1 3l-204 525h165l116 -311l113 311h149l-208 -569q-15 -42 -32.5 -69.5q-17.5 -27.5 -40 -43q-22.5 -15.5 -52 -22q-29.5 -6.5 -70.5 -6.5h-76v125zM473 749q0 -84 -45 -126q-45 -42 -142 -42q-97 0 -142 42q-45 42 -45 126l130 0q0 -47 14 -63q14 -16 43 -16q29 0 43 16q14 16 14 63z" />
<glyph unicode="&#1168;" horiz-adv-x="559" d="M382 690v150h157v-291h-302v-549h-167l0 690z" />
<glyph unicode="&#1169;" horiz-adv-x="466" d="M294 510v140h152v-269h-224v-381h-162l0 510z" />
<glyph unicode="&#8192;" horiz-adv-x="500" />
<glyph unicode="&#8193;" horiz-adv-x="1000" />
<glyph unicode="&#8194;" horiz-adv-x="500" />
<glyph unicode="&#8195;" horiz-adv-x="1000" />
<glyph unicode="&#8196;" horiz-adv-x="300" />
<glyph unicode="&#8197;" horiz-adv-x="250" />
<glyph unicode="&#8198;" horiz-adv-x="100" />
<glyph unicode="&#8199;" horiz-adv-x="200" />
<glyph unicode="&#8200;" horiz-adv-x="210" />
<glyph unicode="&#8201;" horiz-adv-x="150" />
<glyph unicode="&#8202;" horiz-adv-x="35" />
<glyph unicode="&#8203;" horiz-adv-x="0" />
<glyph unicode="&#8211;" horiz-adv-x="653" d="M50 195v126h553l0 -126z" />
<glyph unicode="&#8212;" horiz-adv-x="893" d="M70 195v126h753l0 -126z" />
<glyph unicode="&#8216;" horiz-adv-x="287" d="M145 388q-42 0 -67 21q-25 21 -25 71v65q0 45 8.5 76q8.5 31 27.5 49.5q19 18.5 48 26.5q29 8 71 8l0 -83q-38 0 -51.5 -14q-13.5 -14 -13.5 -41v-6h3q39 0 63.5 -20.5q24.5 -20.5 24.5 -69.5q0 -42 -23 -62.5t-66 -20.5z" />
<glyph unicode="&#8217;" horiz-adv-x="287" d="M142 703q42 0 67 -21q25 -21 25 -71v-65q0 -45 -8.5 -76q-8.5 -31 -27.5 -49.5q-19 -18.5 -48 -26.5q-29 -8 -71 -8l0 83q38 0 51.5 14q13.5 14 13.5 41v6h-3q-39 0 -63.5 20.5q-24.5 20.5 -24.5 69.5q0 42 23 62.5t66 20.5z" />
<glyph unicode="&#8218;" horiz-adv-x="287" d="M142 160q42 0 67 -21q25 -21 25 -71v-65q0 -45 -8.5 -76q-8.5 -31 -27.5 -49.5q-19 -18.5 -48 -26.5q-29 -8 -71 -8l0 83q38 0 51.5 14q13.5 14 13.5 41v6h-3q-39 0 -63.5 20.5q-24.5 20.5 -24.5 69.5q0 42 23 62.5t66 20.5z" />
<glyph unicode="&#8220;" horiz-adv-x="522" d="M380 388q-42 0 -67 21q-25 21 -25 71v65q0 45 8.5 76q8.5 31 27.5 49.5q19 18.5 48 26.5q29 8 71 8l0 -83q-38 0 -51.5 -14q-13.5 -14 -13.5 -41v-6h3q39 0 63.5 -20.5q24.5 -20.5 24.5 -69.5q0 -42 -23 -62.5q-23 -20.5 -66 -20.5zt0 0zM145 388q-42 0 -67 21q-25 21 -25 71v65q0 45 8.5 76q8.5 31 27.5 49.5q19 18.5 48 26.5q29 8 71 8l0 -83q-38 0 -51.5 -14q-13.5 -14 -13.5 -41v-6h3q39 0 63.5 -20.5q24.5 -20.5 24.5 -69.5q0 -42 -23 -62.5t-66 -20.5z" />
<glyph unicode="&#8221;" horiz-adv-x="522" d="M142 703q42 0 67 -21q25 -21 25 -71v-65q0 -45 -8.5 -76q-8.5 -31 -27.5 -49.5q-19 -18.5 -48 -26.5q-29 -8 -71 -8l0 83q38 0 51.5 14q13.5 14 13.5 41v6h-3q-39 0 -63.5 20.5q-24.5 20.5 -24.5 69.5q0 42 23 62.5q23 20.5 66 20.5zt0 0zM377 703q42 0 67 -21q25 -21 25 -71v-65q0 -45 -8.5 -76q-8.5 -31 -27.5 -49.5q-19 -18.5 -48 -26.5q-29 -8 -71 -8l0 83q38 0 51.5 14q13.5 14 13.5 41v6h-3q-39 0 -63.5 20.5q-24.5 20.5 -24.5 69.5q0 42 23 62.5t66 20.5z" />
<glyph unicode="&#8222;" horiz-adv-x="522" d="M142 160q42 0 67 -21q25 -21 25 -71v-65q0 -45 -8.5 -76q-8.5 -31 -27.5 -49.5q-19 -18.5 -48 -26.5q-29 -8 -71 -8l0 83q38 0 51.5 14q13.5 14 13.5 41v6h-3q-39 0 -63.5 20.5q-24.5 20.5 -24.5 69.5q0 42 23 62.5q23 20.5 66 20.5zt0 0zM377 160q42 0 67 -21q25 -21 25 -71v-65q0 -45 -8.5 -76q-8.5 -31 -27.5 -49.5q-19 -18.5 -48 -26.5q-29 -8 -71 -8l0 83q38 0 51.5 14q13.5 14 13.5 41v6h-3q-39 0 -63.5 20.5q-24.5 20.5 -24.5 69.5q0 42 23 62.5t66 20.5z" />
<glyph unicode="&#8226;" horiz-adv-x="450" d="M370 359q0 -74 -37.5 -107q-37.5 -33 -106.5 -33q-69 0 -107.5 33q-38.5 33 -38.5 107q0 74 38.5 106.5q38.5 32.5 107.5 32.5q69 0 106.5 -32.5t37.5 -106.5z" />
<glyph unicode="&#8230;" horiz-adv-x="779" d="M234 74q0 -45 -23 -66q-23 -21 -67 -21q-44 0 -67.5 21q-23.5 21 -23.5 66q0 45 23.5 65.5q23.5 20.5 67.5 20.5q44 0 67 -20.5q23 -20.5 23 -65.5zt0 0zM480 74q0 -45 -23 -66q-23 -21 -67 -21q-44 0 -67.5 21q-23.5 21 -23.5 66q0 45 23.5 65.5q23.5 20.5 67.5 20.5q44 0 67 -20.5q23 -20.5 23 -65.5zt0 0zM726 74q0 -45 -23 -66q-23 -21 -67 -21q-44 0 -67.5 21q-23.5 21 -23.5 66q0 45 23.5 65.5q23.5 20.5 67.5 20.5q44 0 67 -20.5t23 -65.5z" />
<glyph unicode="&#8239;" horiz-adv-x="100" />
<glyph unicode="&#8240;" horiz-adv-x="1433" d="M1202 -14q-92 0 -147 48q-55 48 -55 146q0 97 55 145q55 48 147 48q92 0 147 -48q55 -48 55 -145q0 -98 -55 -146q-55 -48 -147 -48zt0 0zM1202 93q34 0 51 15q17 15 17 59v26q0 42 -17.5 57.5q-17.5 15.5 -50.5 15.5q-33 0 -50.5 -15q-17.5 -15 -17.5 -58v-26q0 -44 17 -59q17 -15 51 -15zt0 0zM333 0h-146l474 690h149zM232 316q-92 0 -147 48q-55 48 -55 146q0 96 55 144.5q55 48.5 147 48.5q46 0 83 -12q37 -12 63.5 -36.5q26.5 -24.5 41 -60.5q14.5 -36 14.5 -84q0 -49 -14.5 -85.5q-14.5 -36.5 -41 -60.5q-26.5 -24 -63.5 -36q-37 -12 -83 -12zt0 0zM232 423q34 0 51 14.5q17 14.5 17 58.5v27q0 42 -17.5 57.5q-17.5 15.5 -50.5 15.5q-33 0 -50.5 -15.5q-17.5 -15.5 -17.5 -57.5v-27q0 -44 16.5 -58.5q16.5 -14.5 51.5 -14.5zt0 0zM767 -14q-92 0 -147 48q-55 48 -55 146q0 97 55 145q55 48 147 48q91 0 146 -48q55 -48 55 -145q0 -98 -55 -146q-55 -48 -146 -48zt0 0zM767 93q34 0 51 15q17 15 17 59v26q0 42 -17.5 57.5q-17.5 15.5 -50.5 15.5q-34 0 -51.5 -15q-17.5 -15 -17.5 -58v-26q0 -44 17 -59t52 -15z" />
<glyph unicode="&#8242;" horiz-adv-x="303" d="M243 690l-69 -267h-114l54 267z" />
<glyph unicode="&#8243;" horiz-adv-x="504" d="M243 690l-69 -267h-114l54 267zM444 690l-69 -267h-114l54 267z" />
<glyph unicode="&#8249;" horiz-adv-x="313" d="M148 259l113 -86v-155l-223 180v117l223 180l0 -151z" />
<glyph unicode="&#8250;" horiz-adv-x="313" d="M165 254l-113 86v155l223 -180v-117l-223 -180l0 151z" />
<glyph unicode="&#8260;" horiz-adv-x="355" d="M364 750h141l-534 -750l-141 0z" />
<glyph unicode="&#8287;" horiz-adv-x="180" />
<glyph unicode="&#8288;" horiz-adv-x="0" />
<glyph unicode="&#8364;" horiz-adv-x="731" d="M30 470h80q23 124 98 178.5q75 54.5 195 54.5q130 0 205.5 -50q75.5 -50 89.5 -170l-172 0q-6 48 -38.5 67.5q-32.5 19.5 -84.5 19.5q-48 0 -80.5 -21.5q-32.5 -21.5 -44.5 -78.5l186 0v-100h-192v-50h192v-100h-186q12 -57 43.5 -78.5q31.5 -21.5 81.5 -21.5q51 0 83.5 18.5q32.5 18.5 40.5 68.5l172 0q-15 -116 -91 -168q-76 -52 -205 -52q-60 0 -109 12.5q-49 12.5 -85.5 40.5q-36.5 28 -61.5 72.5q-25 44.5 -37 107.5l-80 0v100h70v27v23l-70 0z" />
<glyph unicode="&#8372;" horiz-adv-x="708" d="M353 108q50 0 74 12q24 12 32 38l172 0q-8 -85 -78 -128q-70 -43 -202 -43q-74 0 -126.5 11q-52.5 11 -85.5 31q-33 20 -48.5 48q-15.5 28 -15.5 62q0 26 9.5 46.5q9.5 20.5 24.5 36.5l-59 0v100h608v-100h-372q-33 -16 -33 -48v-14q0 -28 26.5 -40q26.5 -12 73.5 -12zt0 0zM356 582q-46 0 -68.5 -13.5q-22.5 -13.5 -29.5 -36.5l-172 0q7 83 76 127q69 44 195 44q70 0 120 -11.5q50 -11.5 82 -32.5q32 -21 47 -50q15 -29 15 -65q0 -23 -7.5 -42q-7.5 -19 -19.5 -34l64 0v-93h-608v93h363q30 15 30 45v14q0 27 -22.5 41t-64.5 14z" />
<glyph unicode="&#8376;" horiz-adv-x="625" d="M396 401v-401h-167v401h-209v114h585v-114zM20 576v114h585l0 -114z" />
<glyph unicode="&#8381;" horiz-adv-x="720" d="M694 473q0 -97 -54.5 -149.5q-54.5 -52.5 -163.5 -52.5h-187v-62h239v-112h-239v-97h-167v97h-95v112h95v62h-95v125h95v294h354q109 0 163.5 -57.5q54.5 -57.5 54.5 -159.5zt0 0zM521 482q0 32 -18 50.5q-18 18.5 -60 18.5h-154v-155h154q43 0 60.5 19.5q17.5 19.5 17.5 48.5z" />
<glyph unicode="&#8470;" horiz-adv-x="1192" d="M519 210v480h156v-690h-229l-221 479v-479h-155v690h228zM947 316q-92 0 -147 48q-55 48 -55 146q0 96 55 144.5q55 48.5 147 48.5q46 0 83 -12q37 -12 63.5 -36.5q26.5 -24.5 41 -60.5q14.5 -36 14.5 -84q0 -49 -14.5 -85.5q-14.5 -36.5 -41 -60.5q-26.5 -24 -63.5 -36q-37 -12 -83 -12zt0 0zM763 266h368v-115h-368zM947 423q33 0 50.5 15.5q17.5 15.5 17.5 57.5v27q0 44 -17 58.5q-17 14.5 -51 14.5q-34 0 -51 -14.5q-17 -14.5 -17 -58.5v-27q0 -42 17 -57.5t51 -15.5z" />
<glyph unicode="&#8482;" horiz-adv-x="947" d="M542 556v-229h-121v363h180l62 -183l62 183h172v-363h-129v226l-58 -173h-110zM266 598v-271h-129v271h-115v92h355l0 -92z" />
<glyph unicode="&#8531;" horiz-adv-x="1003" d="M782 82q30 0 45 9q15 9 15 32v12q0 35 -63 35h-42v96h41q24 0 36 8.5q12 8.5 12 20.5v12q0 20 -12.5 28q-12.5 8 -35.5 8q-23 0 -36 -7q-13 -7 -17 -30l-128 0q1 37 15.5 62.5q14.5 25.5 38.5 41q24 15.5 57 22q33 6.5 72 6.5q81 0 129 -28.5q48 -28.5 48 -86.5q0 -36 -21 -62.5q-21 -26.5 -66 -38.5q103 -20 103 -100q0 -65 -47 -100q-47 -35 -143 -35q-93 0 -142 32q-49 32 -54 106l131 0q5 -20 18.5 -31.5q13.5 -11.5 45.5 -11.5zt0 0zM22 669l105 81h131v-425h-131v302l-105 -85zM647 750h141l-534 -750l-141 0z" />
<glyph unicode="&#8532;" horiz-adv-x="1131" d="M910 82q30 0 45 9q15 9 15 32v12q0 35 -63 35h-42v96h41q24 0 36 8.5q12 8.5 12 20.5v12q0 20 -12.5 28q-12.5 8 -35.5 8q-23 0 -36 -7q-13 -7 -17 -30l-128 0q1 37 15.5 62.5q14.5 25.5 38.5 41q24 15.5 57 22q33 6.5 72 6.5q81 0 129 -28.5q48 -28.5 48 -86.5q0 -36 -21 -62.5q-21 -26.5 -66 -38.5q103 -20 103 -100q0 -65 -47 -100q-47 -35 -143 -35q-93 0 -142 32q-49 32 -54 106l131 0q5 -20 18.5 -31.5q13.5 -11.5 45.5 -11.5zt0 0zM782 750h141l-534 -750h-141zM214 667q-52 0 -55 -44l-132 0q2 39 16 65.5q14 26.5 38 43q24 16.5 57.5 24q33.5 7.5 73.5 7.5q43 0 77.5 -7q34.5 -7 59 -23q24.5 -16 37.5 -40.5q13 -24.5 13 -60.5q0 -38 -16 -62q-16 -24 -40.5 -40q-24.5 -16 -53.5 -26.5q-29 -10.5 -55.5 -21q-26.5 -10.5 -46.5 -22.5q-20 -12 -25 -31l237 0v-104h-370v61q0 47 17.5 77.5q17.5 30.5 44 50.5q26.5 20 57.5 32q31 12 57.5 22.5q26.5 10.5 44 21q17.5 10.5 17.5 27.5v12q0 21 -13 29.5t-40 8.5z" />
<glyph unicode="&#8539;" horiz-adv-x="1023" d="M784 -13q-97 0 -149 31q-52 31 -52 102q0 38 23.5 64.5q23.5 26.5 65.5 38.5q-37 13 -54.5 37q-17.5 24 -17.5 56q0 32 13.5 55q13.5 23 38 38q24.5 15 58 22q33.5 7 74.5 7q41 0 75 -7q34 -7 58.5 -22q24.5 -15 38 -38q13.5 -23 13.5 -55q0 -32 -18 -56q-18 -24 -54 -37q42 -12 65.5 -38.5q23.5 -26.5 23.5 -64.5q0 -71 -52 -102q-52 -31 -150 -31zt0 0zM784 170q-33 0 -51 -9.5q-18 -9.5 -18 -32.5v-11q0 -20 18.5 -30q18.5 -10 50.5 -10q31 0 50.5 10q19.5 10 19.5 30v11q0 23 -18.5 32.5q-18.5 9.5 -51.5 9.5zt0 0zM784 264q28 0 44.5 9q16.5 9 16.5 29v7q0 20 -16.5 29.5q-16.5 9.5 -44.5 9.5q-27 0 -42.5 -9.5q-15.5 -9.5 -15.5 -29.5v-7q0 -20 15.5 -29q15.5 -9 42.5 -9zt0 0zM22 669l105 81h131v-425h-131v302l-105 -85zM647 750h141l-534 -750l-141 0z" />
<glyph unicode="&#8540;" horiz-adv-x="1115" d="M743 750h141l-534 -750h-141zM225 407q30 0 45 9q15 9 15 32v12q0 35 -63 35h-42v96h41q24 0 36 8.5q12 8.5 12 20.5v12q0 20 -12.5 28q-12.5 8 -35.5 8q-23 0 -36 -7q-13 -7 -17 -30l-128 0q1 37 15.5 62.5q14.5 25.5 38.5 41q24 15.5 57 22q33 6.5 72 6.5q81 0 129 -28.5q48 -28.5 48 -86.5q0 -36 -21 -62.5q-21 -26.5 -66 -38.5q103 -20 103 -100q0 -65 -47 -100q-47 -35 -143 -35q-93 0 -142 32q-49 32 -54 106l131 0q5 -20 18.5 -31.5q13.5 -11.5 45.5 -11.5zt0 0zM876 -13q-97 0 -149 31q-52 31 -52 102q0 38 23.5 64.5q23.5 26.5 65.5 38.5q-37 13 -54.5 37q-17.5 24 -17.5 56q0 32 13.5 55q13.5 23 38 38q24.5 15 58 22q33.5 7 74.5 7q41 0 75 -7q34 -7 58.5 -22q24.5 -15 38 -38q13.5 -23 13.5 -55q0 -32 -18 -56q-18 -24 -54 -37q42 -12 65.5 -38.5q23.5 -26.5 23.5 -64.5q0 -71 -52 -102q-52 -31 -150 -31zt0 0zM876 170q-33 0 -51 -9.5q-18 -9.5 -18 -32.5v-11q0 -20 18.5 -30q18.5 -10 50.5 -10q31 0 50.5 10q19.5 10 19.5 30v11q0 23 -18.5 32.5q-18.5 9.5 -51.5 9.5zt0 0zM876 264q28 0 44.5 9q16.5 9 16.5 29v7q0 20 -16.5 29.5q-16.5 9.5 -44.5 9.5q-27 0 -42.5 -9.5q-15.5 -9.5 -15.5 -29.5v-7q0 -20 15.5 -29t42.5 -9z" />
<glyph unicode="&#8541;" horiz-adv-x="1136" d="M766 750h141l-534 -750h-141zM897 -13q-97 0 -149 31q-52 31 -52 102q0 38 23.5 64.5q23.5 26.5 65.5 38.5q-37 13 -54.5 37q-17.5 24 -17.5 56q0 32 13.5 55q13.5 23 38 38q24.5 15 58 22q33.5 7 74.5 7q41 0 75 -7q34 -7 58.5 -22q24.5 -15 38 -38q13.5 -23 13.5 -55q0 -32 -18 -56q-18 -24 -54 -37q42 -12 65.5 -38.5q23.5 -26.5 23.5 -64.5q0 -71 -52 -102q-52 -31 -150 -31zt0 0zM897 170q-33 0 -51 -9.5q-18 -9.5 -18 -32.5v-11q0 -20 18.5 -30q18.5 -10 50.5 -10q31 0 50.5 10q19.5 10 19.5 30v11q0 23 -18.5 32.5q-18.5 9.5 -51.5 9.5zt0 0zM897 264q28 0 44.5 9q16.5 9 16.5 29v7q0 20 -16.5 29.5q-16.5 9.5 -44.5 9.5q-27 0 -42.5 -9.5q-15.5 -9.5 -15.5 -29.5v-7q0 -20 15.5 -29q15.5 -9 42.5 -9zt0 0zM225 412q26 0 40.5 9.5q14.5 9.5 14.5 31.5v15q0 26 -15 36q-15 10 -41 10q-45 0 -67 -23l-113 21l21 238h318v-104h-221l-8 -75q16 14 41.5 22q25.5 8 56.5 8q81 0 121 -36q40 -36 40 -102q0 -79 -49 -115q-49 -36 -137 -36q-92 0 -142 33q-50 33 -55 98l133 0q8 -31 62 -31z" />
<glyph unicode="&#8542;" horiz-adv-x="994" d="M755 -13q-97 0 -149 31q-52 31 -52 102q0 38 23.5 64.5q23.5 26.5 65.5 38.5q-37 13 -54.5 37q-17.5 24 -17.5 56q0 32 13.5 55q13.5 23 38 38q24.5 15 58 22q33.5 7 74.5 7q41 0 75 -7q34 -7 58.5 -22q24.5 -15 38 -38q13.5 -23 13.5 -55q0 -32 -18 -56q-18 -24 -54 -37q42 -12 65.5 -38.5q23.5 -26.5 23.5 -64.5q0 -71 -52 -102q-52 -31 -150 -31zt0 0zM755 170q-33 0 -51 -9.5q-18 -9.5 -18 -32.5v-11q0 -20 18.5 -30q18.5 -10 50.5 -10q31 0 50.5 10q19.5 10 19.5 30v11q0 23 -18.5 32.5q-18.5 9.5 -51.5 9.5zt0 0zM755 264q28 0 44.5 9q16.5 9 16.5 29v7q0 20 -16.5 29.5q-16.5 9.5 -44.5 9.5q-27 0 -42.5 -9.5q-15.5 -9.5 -15.5 -29.5v-7q0 -20 15.5 -29q15.5 -9 42.5 -9zt0 0zM618 750h141l-534 -750h-141zM20 750h343v-83l-175 -342h-129l164 321l-203 0z" />
<glyph unicode="&#8592;" horiz-adv-x="936" d="M248 295l183 -127v-138l-361 252v129l360 255v-134l-177 -125h613l0 -112z" />
<glyph unicode="&#8594;" horiz-adv-x="936" d="M688 405l-183 127v138l361 -252v-129l-360 -255v134l177 125h-613l0 112z" />
<glyph unicode="&#8722;" horiz-adv-x="650" d="M64 281v141h522l0 -141z" />
<glyph unicode="&#8776;" horiz-adv-x="647" d="M219 559q39 0 65.5 -9q26.5 -9 46.5 -20q20 -11 36.5 -20q16.5 -9 36.5 -9q26 0 36.5 14q10.5 14 11.5 40l134 0q-2 -180 -153 -180q-37 0 -63 8.5q-26 8.5 -46.5 18.5q-20.5 10 -38 18.5q-17.5 8.5 -38.5 8.5q-29 0 -40.5 -13q-11.5 -13 -11.5 -36l-134 0q1 88 40.5 133.5q39.5 45.5 117.5 45.5zt0 0zM219 322q39 0 65.5 -9q26.5 -9 46.5 -20q20 -11 36.5 -20q16.5 -9 36.5 -9q28 0 39.5 14q11.5 14 11.5 40l131 0q-2 -180 -153 -180q-37 0 -63 8.5q-26 8.5 -46.5 18.5q-20.5 10 -38 18.5q-17.5 8.5 -38.5 8.5q-29 0 -40.5 -13q-11.5 -13 -11.5 -36l-134 0q1 88 40.5 133.5t117.5 45.5z" />
<glyph unicode="&#8800;" horiz-adv-x="650" d="M102 32l55 120h-93v141h159l53 114h-212v141h277l56 121h151l-56 -121h94v-141h-159l-53 -114h212v-141h-277l-55 -120z" />
<glyph unicode="&#8804;" horiz-adv-x="650" d="M64 381v170l522 145v-144l-348 -86l348 -85v-146zM64 50v141h522l0 -141z" />
<glyph unicode="&#8805;" horiz-adv-x="650" d="M586 550v-170l-522 -145v144l347 85l-347 86v146zM64 50v141h522l0 -141z" />
<glyph unicode="&#9413;" horiz-adv-x="862" d="M612 397q0 -61 -32 -94.5q-32 -33.5 -111 -33.5h-52v-103h-114v360h166q40 0 67 -9q27 -9 44 -26q17 -17 24.5 -41q7.5 -24 7.5 -53zt0 0zM500 409q0 30 -37 30h-46v-84h46q37 0 37 32zM809 345q0 -86 -27 -152.5q-27 -66.5 -76 -112q-49 -45.5 -118 -69.5q-69 -24 -153 -24q-84 0 -153 24q-69 24 -118.5 69.5q-49.5 45.5 -76.5 112q-27 66.5 -27 152.5q0 85 27 152q27 67 76.5 112.5q49.5 45.5 118.5 69.5q69 24 153 24q84 0 153 -24q69 -24 118 -69.5q49 -45.5 76 -112.5q27 -67 27 -152zt0 0zM435 64q64 0 116.5 17q52.5 17 89.5 51.5q37 34.5 57.5 87.5q20.5 53 20.5 125q0 72 -20.5 124.5q-20.5 52.5 -57.5 87.5q-37 35 -89.5 52q-52.5 17 -116.5 17q-64 0 -116.5 -17q-52.5 -17 -89.5 -52q-37 -35 -57.5 -87.5q-20.5 -52.5 -20.5 -124.5q0 -72 20.5 -125q20.5 -53 57.5 -87.5q37 -34.5 89.5 -51.5t116.5 -17z" />
<glyph unicode="&#63743;" horiz-adv-x="1011" d="M656 613q9 0 28 -1.5q19 -1.5 42 -9q23 -7.5 47.5 -24q24.5 -16.5 45.5 -46.5q-1 -2 -15 -11.5q-14 -9.5 -30 -29q-16 -19.5 -29.5 -48.5q-13.5 -29 -13.5 -69q0 -46 17 -77.5q17 -31.5 37 -51q20 -19.5 37.5 -28q17.5 -8.5 18.5 -8.5q0 -2 -3.5 -12.5q-3.5 -10.5 -10 -26.5q-6.5 -16 -17 -36.5q-10.5 -20.5 -24.5 -42.5q-14 -19 -27.5 -37q-13.5 -18 -29.5 -32.5q-16 -14.5 -34 -23q-18 -8.5 -39 -8.5q-21 0 -35.5 5q-14.5 5 -28.5 11q-14 6 -30.5 11q-16.5 5 -40.5 5q-24 0 -40.5 -5.5q-16.5 -5.5 -31.5 -11.5q-15 -6 -30 -11.5q-15 -5.5 -34 -5.5q-20 0 -36.5 8.5q-16.5 8.5 -31.5 22.5q-15 14 -30 33q-15 19 -30 40q-18 26 -34 58.5q-16 32.5 -27.5 67.5q-11.5 35 -18.5 72.5q-7 37.5 -7 74.5q0 60 18 106.5q18 46.5 47.5 77.5q29.5 31 67 47q37.5 16 75.5 16q20 0 38.5 -5.5q18.5 -5.5 35 -12.5q16.5 -7 31.5 -12.5q15 -5.5 28 -5.5q12 0 27.5 6q15.5 6 34 12.5q18.5 6.5 39.5 12.5q21 6 44 6zt0 0zM628 681q-21 -25 -52.5 -41.5q-31.5 -16.5 -59.5 -16.5h-13q-1 2 -1 6.5q0 4.5 0 9.5q0 32 14.5 61.5q14.5 29.5 31.5 49.5q23 26 56.5 43.5q33.5 17.5 64.5 18.5q2 -4 2 -17q0 -32 -12 -61t-31 -53z" />
<glyph unicode="&#64257;" horiz-adv-x="603" d="M381 0v381h-144v-381h-162v381h-62v129h62v55q0 40 9.5 71q9.5 31 32.5 52q23 21 62 31.5q39 10.5 98 10.5h266v-129h-240q-38 0 -52 -10.5q-14 -10.5 -14 -36.5v-44h306l0 -510z" />
<glyph unicode="&#64258;" horiz-adv-x="603" d="M381 0v381h-144v-381h-162v381h-62v129h62v41q0 44 9.5 77.5q9.5 33.5 32.5 56q23 22.5 62 34q39 11.5 98 11.5h266v-730zM237 510h144v101h-78q-38 0 -52 -15q-14 -15 -14 -49z" />
<glyph unicode="&#65279;" horiz-adv-x="0" />
</font>
</defs>
</svg>
